<?xml version="1.0" standalone="no"?>
<!DOCTYPE svg PUBLIC "-//W3C//DTD SVG 1.1//EN" "http://www.w3.org/Graphics/SVG/1.1/DTD/svg11.dtd" >
<!--
2013-9-30: Created.
-->
<svg>
<metadata>
Created by iconfont
</metadata>
<defs>

<font id="iconfont" horiz-adv-x="1024" >
  <font-face
    font-family="iconfont"
    font-weight="500"
    font-stretch="normal"
    units-per-em="1024"
    ascent="896"
    descent="-128"
  />
    <missing-glyph />
    
    <glyph glyph-name="CartIndia-Logo" unicode="&#59380;" d="M111.802729 424.839529l1.795012-0.036141c11.011012-0.451765 26.099953-4.830871 34.575059-10.149647l-9.348518-15.179294-0.987858 0.578259c-5.963294 3.312941-18.010353 6.908988-26.033695 6.908988l-1.608282-0.01807c-19.654776-0.536094-32.262024-10.860424-32.262023-26.617977l0.024094-1.264941c0.680659-15.4624 13.811953-25.371106 33.852235-25.371106l1.511906 0.042165c8.342588 0.439718 20.196894 4.276706 25.503623 7.613741l9.342494-15.179294-1.578164-0.939671C137.282259 339.955953 122.157176 335.811765 111.802729 335.811765l-1.710682 0.01807C80.655059 336.504471 60.235294 354.6112 60.235294 380.325647c0 26.202353 21.202824 44.513882 51.567435 44.513882z m357.833789 0.018071v-17.793506h-33.755859v-71.174023H415.322353V407.070118h-33.755859v17.793506h88.076047z m-245.621459 0l40.526306-88.967529h-19.552377l-8.113694 17.811576h-45.284894l-8.113694-17.811576h-19.5584l40.532329 88.967529h19.564424z m115.169882 0l1.264941-0.036141c13.751718-0.662588 24.744659-12.179576 24.744659-26.238494l-0.030117-1.258918c-0.626447-13.360188-11.197741-24.112188-24.383248-24.931388l24.413365-36.502588H345.148235l-24.359153 36.424282h-19.480094v-36.424282h-19.480094v88.967529h57.356047z m172.550024 0.301176v-88.967529H491.158588v88.967529h20.570353z m314.506541 0l40.532329-88.967529h-19.5584l-8.113694 17.805553h-45.284894l-8.113694-17.805553h-19.552377l40.526306 88.967529h19.564424z m-159.996988-0.764988c20.371576 0 43.730824-16.745412 43.730823-44.1344 0-26.202353-22.479812-42.917647-42.508047-43.574212l-1.222776-0.024094h-33.105318V424.393788h33.105318z m83.727058 1.770918v-88.96753h-20.570352V426.164706h20.570352z m153.660236 0l39.568564-54.006965V426.164706H963.764706v-88.96753h-20.56433l-39.568564 55.344189v-55.344189h-20.56433V426.164706h20.56433z m-351.256094 0l39.562541-54.006965V426.164706h20.564329v-88.96753h-20.564329l-39.562541 55.344189v-55.344189h-20.56433V426.164706h20.56433z m113.8688-18.510306H651.745882v-54.091294h14.504659c15.986447 0 26.985412 13.010824 26.985412 27.045647s-11.360376 27.045647-26.985412 27.045647z m-452.011671-4.258635l-14.534776-31.900612h29.069553l-14.534777 31.900612z m602.232471 0.301176l-14.5408-31.906635h29.069553l-14.534777 31.906635z m-478.533271 4.168283h-36.623059v-18.564518h36.623059l0.837271 0.042165a9.258165 9.258165 0 0 1 8.348611 9.240094l-0.036141 0.843294a9.234071 9.234071 0 0 1-9.149741 8.432941z"  horiz-adv-x="1024" />

    
    <glyph glyph-name="tabicon_1Prize_normal" unicode="&#59378;" d="M746.666667 789.333333a42.666667 42.666667 0 0 0 42.56-39.466666L789.333333 746.666667v-65.621334c60.224-9.28 106.666667-57.130667 106.666667-115.712 0-58.56-46.442667-106.432-106.645333-115.712L789.333333 405.333333c0-145.984-112.789333-265.621333-256-276.522666v-112.384h96.490667a21.333333 21.333333 0 0 0 2.474667-42.538667l-2.474667-0.149333h-237.866667a21.333333 21.333333 0 0 0-2.474666 42.538666l2.474666 0.128L490.666667 16.426667v112.384c-141.056 10.730667-252.608 126.976-255.914667 269.973333L234.666667 405.333333v49.344c-49.493333 16.042667-85.333333 59.221333-85.333334 110.656 0 51.434667 35.84 94.613333 85.333334 110.656V746.666667a42.666667 42.666667 0 0 0 39.466666 42.56L277.333333 789.333333h469.333334zM277.333333 405.333333c0-129.6 105.066667-234.666667 234.666667-234.666666 127.552 0 231.317333 101.76 234.581333 228.522666L746.666667 405.333333V746.666667H277.333333v-341.333334z m251.306667 205.354667l1.578667-2.261333 37.76-62.016 70.677333-16.768c13.824-3.264 20.202667-18.538667 14.122667-30.4l-1.28-2.176-1.578667-2.090667-47.338667-55.061333 5.909334-72.405334a21.333333 21.333333 0 0 0-24.789334-22.784l-2.346666 0.533334-2.346667 0.853333L512 374.058667l-67.008-27.989334A21.333333 21.333333 0 0 0 415.637333 362.666667l-0.213333 2.389333 0.085333 2.474667 5.888 72.405333-47.317333 55.061333a21.354667 21.354667 0 0 0 6.442667 32.917334l2.325333 1.002666 2.496 0.746667 70.656 16.768 37.76 62.016a21.333333 21.333333 0 0 0 34.88 2.261333zM512 556.309333l-24.170667-39.701333a21.333333 21.333333 0 0 0-10.602666-8.832l-2.709334-0.853333-45.248-10.688 30.293334-35.285334a21.333333 21.333333 0 0 0 4.8-10.026666l0.341333-2.773334-0.042667-2.837333-3.797333-46.336 42.922667 17.92a21.333333 21.333333 0 0 0 11.008 1.450667l2.752-0.554667 2.666666-0.917333 42.901334-17.898667-3.776 46.336a21.333333 21.333333 0 0 0 2.005333 10.922667l1.386667 2.453333 1.706666 2.261333 30.272 35.285334-45.226666 10.709333a21.333333 21.333333 0 0 0-9.770667 5.269333l-1.92 2.069334-1.621333 2.325333L512 556.309333z m277.333333 81.344v-144.64c37.077333 8.362667 64 37.930667 64 72.32s-26.922667 63.957333-64 72.32z m-554.666666-7.637333c-25.6-13.013333-42.666667-37.333333-42.666667-64.682667 0-27.370667 17.066667-51.669333 42.666667-64.682666z"  horiz-adv-x="1024" />

    
    <glyph glyph-name="tabicon_1Prize_selected" unicode="&#59379;" d="M746.666667 789.333333a42.666667 42.666667 0 0 0 42.56-39.466666L789.333333 746.666667v-65.621334c60.224-9.28 106.666667-57.130667 106.666667-115.712 0-58.56-46.442667-106.432-106.645333-115.712L789.333333 405.333333c0-145.984-112.789333-265.621333-256-276.522666v-112.384h96.490667a21.333333 21.333333 0 0 0 2.474667-42.538667l-2.474667-0.149333h-237.866667a21.333333 21.333333 0 0 0-2.474666 42.538666l2.474666 0.128L490.666667 16.426667v112.384c-141.056 10.730667-252.608 126.976-255.914667 269.973333L234.666667 405.333333v49.344c-49.493333 16.042667-85.333333 59.221333-85.333334 110.656 0 51.434667 35.84 94.613333 85.333334 110.656V746.666667a42.666667 42.666667 0 0 0 39.466666 42.56L277.333333 789.333333h469.333334z m-252.885334-180.906666l-37.781333-62.016-70.656-16.768-2.496-0.746667a21.333333 21.333333 0 0 1-8.746667-33.92l47.296-55.061333-5.888-72.405334-0.064-2.474666a21.333333 21.333333 0 0 1 29.546667-18.944L512 374.08l67.008-27.989333 2.346667-0.832a21.333333 21.333333 0 0 1 27.136 22.250666l-5.909334 72.405334 47.338667 55.061333 1.578667 2.090667a21.333333 21.333333 0 0 1-12.842667 32.576l-70.677333 16.768-37.76 62.016a21.333333 21.333333 0 0 1-36.437334 0zM512 556.309333l24.170667-39.701333 1.642666-2.325333a21.333333 21.333333 0 0 1 11.669334-7.338667l45.226666-10.709333-30.293333-35.285334-1.706667-2.261333a21.333333 21.333333 0 0 1-3.370666-13.376l3.776-46.336-42.88 17.92-2.688 0.896a21.333333 21.333333 0 0 1-13.76-0.917333l-42.922667-17.898667 3.797333 46.336 0.042667 2.816a21.333333 21.333333 0 0 1-5.12 12.8l-30.314667 35.306667 45.248 10.709333a21.333333 21.333333 0 0 1 13.312 9.664L512 556.309333z m277.333333 81.344v-144.64c37.077333 8.362667 64 37.930667 64 72.32s-26.922667 63.957333-64 72.32z m-554.666666-7.637333c-25.6-13.013333-42.666667-37.333333-42.666667-64.682667 0-27.370667 17.066667-51.669333 42.666667-64.682666v129.365333z"  horiz-adv-x="1024" />

    
    <glyph glyph-name="SlashIt_icon_selected" unicode="&#59377;" d="M683.52 726.421333l-50.496-85.098666 79.744-65.237334-79.744-95.04 79.744-62.570666-64.874667-78.293334 64.874667-69.546666-64.874667-80.448 64.874667-81.877334L90.666667 43.94666700000005c-23.104-2.197333-43.498667 16.362667-47.061334 42.005333l-0.384 3.712L3.669333 629.5466670000001c-1.408 26.346667 15.36 49.130667 37.952 52.608l3.264 0.362666L683.52 726.421333zM812.032 725.333333l177.664-51.669333c21.162667-6.144 34.944-28.906667 32.853333-53.226667l-0.490666-3.84-79.744-511.36c-0.234667-1.493333-0.533333-2.986667-0.874667-4.48-6.122667-25.386667-28.416-40.810667-50.794667-35.84l-3.2 0.853334-164.181333 51.008L682.666667 195.13599999999997l62.528 60.586667-45.226667 95.893333 70.101333 64.704-46.805333 81.450667 67.797333 68.565333-45.866666 91.221333L812.032 725.333333zM237.653333 509.76l-168.106666-14.72 22.464-256.853333 51.52 4.522666-9.344 106.730667 98.624 8.618667-3.477334 39.68-98.624-8.618667-6.186666 70.741333 116.608 10.197334-3.477334 39.68z m117.888 10.197333l-6.186666-0.426666-88.917334-7.786667 22.464-256.853333 51.52 4.522666-8.981333 102.656 40.917333 3.584c12.821333 1.130667 23.04-1.578667 30.656-8.064 6.784-5.781333 10.986667-14.08 12.629334-24.832l0.490666-4.16 1.6-18.176c0.704-8.106667 2.133333-16.448 4.224-25.045333 1.813333-7.36 4.693333-12.8 8.661334-16.298667l2.069333-1.6 53.098667 4.650667-0.32 3.690667c-5.034667 3.349333-8.874667 8.853333-11.498667 16.512a97.92 97.92 0 0 0-4.224 16.810666l-0.64 5.418667-1.664 18.88c-1.344 15.402667-5.802667 28.053333-13.354667 37.930667-7.573333 9.898667-19.136 16.426667-34.688 19.541333 12.885333 7.061333 22.4 15.68 28.586667 25.877333 6.144 10.197333 8.64 21.888 7.488 35.072-2.090667 23.872-11.968 41.749333-29.653333 53.653334-16.426667 11.050667-37.866667 15.872-64.277334 14.442666z m445.610667 28.181334l-44.757333-253.909334 162.88-28.736 6.890666 39.061334-111.978666 19.754666 12.8 72.533334 94.165333-16.597334 6.933333 39.253334-94.186666 16.597333 11.264 63.829333 111.616-19.690666 6.912 39.253333-162.538667 28.650667z m-156.117333-2.752l-164.416-14.378667 22.464-256.853333 164.778666 14.421333-3.456 39.509333-113.28-9.898666-6.4 73.386666 95.253334 8.32-3.477334 39.701334-95.253333-8.32-5.653333 64.554666 112.917333 9.877334-3.477333 39.68z m-259.989334-73.216c7.722667-6.314667 12.096-15.36 13.12-27.114667 1.066667-12.010667-1.685333-21.376-8.213333-28.096-6.506667-6.741333-17.002667-10.730667-31.466667-11.989333l-36.522666-3.2-6.549334 74.794666 37.397334 3.264c13.76 1.216 24.512-1.344 32.213333-7.68z"  horiz-adv-x="1024" />

    
    <glyph glyph-name="SlashIt_icon_normal" unicode="&#59376;" d="M960 725.333333H64a64 64 0 0 1-64-64v-554.666666a64 64 0 0 1 64-64h896a64 64 0 0 1 64 64V661.333333a64 64 0 0 1-64 64zM64 682.666667h896a21.333333 21.333333 0 0 0 21.333333-21.333334v-554.666666a21.333333 21.333333 0 0 0-21.333333-21.333334H64a21.333333 21.333333 0 0 0-21.333333 21.333334V661.333333a21.333333 21.333333 0 0 0 21.333333 21.333334zM189.482667 256v107.136h98.986666V402.986667h-98.986666v70.997333h117.056v39.850667H137.813333V256h51.690667z m191.637333 0v103.061333h41.088c12.864 0 22.805333-3.562667 29.824-10.709333 7.04-7.146667 10.538667-17.152 10.538667-30.016v-18.24c0-8.149333 0.682667-16.597333 2.048-25.322667 1.344-8.746667 4.394667-14.997333 9.109333-18.773333h53.312v3.712c-4.736 3.776-8.064 9.6-10.026667 17.450667a93.738667 93.738667 0 0 0-2.901333 22.570666v18.944c0 15.466667-3.349333 28.458667-10.026667 38.976-6.656 10.496-17.6 18.005333-32.853333 22.485334 13.482667 5.909333 23.722667 13.653333 30.741333 23.274666 7.04 9.621333 10.538667 21.056 10.538667 34.282667 0 23.957333-8.298667 42.645333-24.874667 56.042667-16.597333 13.397333-39.594667 20.096-68.970666 20.096H329.386667V256h51.712z m36.650667 142.912h-36.650667v75.093333h37.546667c13.802667 0 24.277333-3.498667 31.424-10.453333 7.146667-6.976 10.709333-16.362667 10.709333-28.16 0-12.053333-3.541333-21.12-10.624-27.285333-7.082667-6.122667-17.877333-9.194667-32.405333-9.194667zM715.818667 256v39.68h-113.685334v73.664h95.637334V409.173333h-95.637334v64.810667h113.344v39.850667H550.4V256h165.397333z m191.637333 0v39.68h-113.706667v73.664h95.637334V409.173333h-95.637334v64.810667h113.344v39.850667h-165.034666V256h165.397333z"  horiz-adv-x="1024" />

    
    <glyph glyph-name="searchfilter_icon_more" unicode="&#59374;" d="M910.199973 144.491117L1627.892652 862.98022a112.637247 112.637247 0 1 0 159.512545-159.62632L989.842471-94.891476a112.637247 112.637247 0 0 0-159.284996 0L32.994749 703.240125A112.978572 112.978572 0 0 0 192.507294 862.98022L910.199973 144.491117z"  horiz-adv-x="1820" />

    
    <glyph glyph-name="tabicon_savetogether_normal" unicode="&#59372;" d="M274.005333 618.496c37.546667 0 73.258667-16.106667 98.005334-44.16 4.693333-5.312 11.541333-8.704 18.858666-8.704l175.381334 0.362667c131.52 0 242.773333-88.405333 277.504-208.938667a52.650667 52.650667 0 0 1 63.744 51.392v26.24a26.24 26.24 0 1 0 52.501333 0v-26.24a104.938667 104.938667 0 0 0-46.570667-87.274667 104 104 0 0 0-58.282666-17.792l-1.344 0.042667a288.213333 288.213333 0 0 0-15.082667-122.112 290.730667 290.730667 0 0 0-65.536-105.578667c-14.933333-15.36-26.816-35.029333-26.816-55.402666v-39.722667c0-24.682667-16.448-44.778667-41.130667-44.778667H610.986667c-24.682667 0-42.837333 20.096-42.837334 44.8v7.722667h-165.653333v-7.744c0-24.682667-17.344-44.778667-42.026667-44.778667H266.24c-24.682667 0-42.112 20.096-42.112 44.8v61.888c0 9.92-9.130667 17.28-12.992 20.8a287.36 287.36 0 0 0-67.541333 91.498667l-46.293334 32.704A78.869333 78.869333 0 0 0 64 251.861333v77.824a78.848 78.848 0 0 0 78.741333 78.762667h5.248a286.933333 286.933333 0 0 0 48.341334 68.096L169.749333 586.026667a26.261333 26.261333 0 0 0 25.493334 32.448zM268.309333 576h-46.570666l22.656-94.037333a27.306667 27.306667 0 0 0-7.573334-26.688l-0.298666-0.277334c-23.893333-22.762667-42.666667-49.642667-55.850667-80-2.986667-6.826667-8.810667-11.818667-12.736-13.397333-6.250667-3.562667-12.757333-2.816-34.346667-2.816A27.093333 27.093333 0 0 1 106.666667 331.626667v-80.469334c0-8.810667 4.266667-17.088 11.392-22.186666l53.504-38.058667c4.010667-2.858667 7.168-6.784 9.152-11.306667a246.698667 246.698667 0 0 1 59.306666-83.2c18.24-16.704 28.288-38.613333 28.288-61.717333V-21.333333h86.741334v81.450666c0 14.997333 6.122667 27.157333 21.013333 27.157334 14.869333 0 26.922667-12.16 26.922667-27.157334v-27.157333h165.226666v27.157333c0 14.997333 12.074667 27.157333 26.944 27.157334s21.205333-12.16 21.205334-27.157334V-21.333333h86.549333v33.066666c0 35.306667 13.866667 69.098667 39.061333 95.168a246.272 246.272 0 0 1 55.04 89.322667c9.045333 25.984 13.653333 53.290667 13.653334 81.109333 0 134.741333-108.757333 244.736-242.453334 244.736l-179.989333-0.362666a79.36 79.36 0 0 0-59.733333 26.986666A80 80 0 0 1 268.309333 576zM256 384a21.333333 21.333333 0 1 0 0-42.666667 21.333333 21.333333 0 0 0 0 42.666667z m310.250667 77.013333c14.506667 0 26.24-9.557333 26.24-21.333333 0-11.797333-11.733333-21.333333-26.24-21.333333h-122.88c-14.506667 0-26.24 9.536-26.24 21.333333 0 11.776 11.733333 21.333333 26.24 21.333333z m-26.24 372.650667c58.816 0 106.666667-47.850667 106.666666-106.666667s-47.850667-106.666667-106.666666-106.666666c-58.837333 0-106.666667 47.850667-106.666667 106.666666s47.829333 106.666667 106.666667 106.666667z m0-42.666667c-35.306667 0-64-28.714667-64-64s28.693333-64 64-64c35.285333 0 64 28.714667 64 64s-28.714667 64-64 64z"  horiz-adv-x="1024" />

    
    <glyph glyph-name="tabicon_savetogether_selectedl" unicode="&#59373;" d="M274.005333 618.496c37.525333 0 73.237333-16.085333 98.026667-44.16 4.650667-5.290667 11.52-8.32 18.837333-8.32h175.381334c131.221333 0 242.090667-88.106667 277.077333-208.192 35.690667-7.338667 64.170667 18.197333 64.170667 50.666667v26.24c0 34.773333 52.501333 34.624 52.501333 0v-26.24a105.024 105.024 0 0 0-104.853333-105.024c-0.490667 0-0.981333 0.149333-1.493334 0.149333 0.810667-8.682667 1.344-17.472 1.344-26.368 0-77.973333-31.018667-149.162667-81.792-201.386667-27.690667-28.394667-23.210667-55.424-23.210666-95.104A44.8 44.8 0 0 0 705.237333-64h-94.229333c-24.533333 0-44.757333 16.597333-44.757333 52.48h-161.002667c0-35.882667-20.202667-52.48-44.757333-52.48h-94.229334a44.8 44.8 0 0 0-44.757333 44.757333V42.666667c0 9.92-6.464 17.28-10.325333 20.757333a288 288 0 0 0-67.562667 91.498667C102.613333 183.893333 64 202.112 64 251.946667v77.802666c0 41.28 31.402667 78.741333 83.989333 78.741334a286.208 286.208 0 0 0 48.341334 68.053333l-26.581334 109.504a26.24 26.24 0 0 0 25.493334 32.448z m-26.24-236.245333a26.24 26.24 0 1 1 0-52.48 26.24 26.24 0 0 1 0 52.48z m318.485334 78.741333h-119.381334c-34.752 0-34.602667-52.48 0-52.48h119.381334c34.752 0 34.602667 52.48 0 52.48z m-26.24 372.693333c58.816 0 106.666667-47.850667 106.666666-106.666666 0-58.837333-47.850667-106.666667-106.666666-106.666667-58.837333 0-106.666667 47.829333-106.666667 106.666667 0 58.816 47.829333 106.666667 106.666667 106.666666z"  horiz-adv-x="1024" />

    
    <glyph glyph-name="Cancleorder_icon_print" unicode="&#59371;" d="M840.331636 465.501091l2.606546 147.735273V896H271.546182v-292.910545h-2.373818l2.327272-134.981819 568.785455-2.606545z m147.223273 137.448727A129.117091 129.117091 0 0 0 1117.090909 474.158545v-346.065454a129.117091 129.117091 0 0 0-129.536-128.791273h-81.687273l-1.489454 98.536727H219.229091v-96.674909l1.489454-1.861818H129.536A129.117091 129.117091 0 0 0 0 128.093091V474.158545a129.117091 129.117091 0 0 0 129.536 128.791273h85.643636v-193.629091h684.125091l7.214546 193.629091h81.035636zM266.193455 51.106909l1.62909-54.784-1.396363-0.465454V-128H853.178182v127.301818h0.930909l-1.536 50.222546-586.333091 1.582545z"  horiz-adv-x="1117" />

    
    <glyph glyph-name="search_filter_choose" unicode="&#59370;" d="M1024 896L0-128V775.529412a120.470588 120.470588 0 0 0 120.470588 120.470588h903.529412zM538.563765 775.529412l-236.001883-263.55953-118.302117 132.156236-67.343059-60.235294 185.675294-207.390118L605.876706 715.294118l-67.312941 60.295529z"  horiz-adv-x="1024" />

    
    <glyph glyph-name="PC_Cart_Morelikethis" unicode="&#59369;" d="M993.599583 686.774331l-460.778607 204.790492a51.197623 51.197623 0 0 1-41.689493 0L30.499155 686.774331a51.197623 51.197623 0 0 1 0-93.61851l460.778607-204.790492c13.238243-5.851157 28.378111-5.851157 41.616354 0l460.778606 204.790492a51.197623 51.197623 0 0 1 0 93.61851zM511.97623 127.988846a51.197623 51.197623 0 0 0-20.771607 4.388368l-460.778607 204.790492a51.197623 51.197623 0 0 0 41.616353 93.61851L511.97623 235.211297l440.006999 195.574919a51.197623 51.197623 0 0 0 41.616354-93.61851l-460.778607-204.790492A51.197623 51.197623 0 0 0 511.97623 127.988846zM511.97623-127.999269a51.197623 51.197623 0 0 0-20.771607 4.388368l-460.778607 204.790492a51.197623 51.197623 0 1 0 41.616353 93.618511L511.97623-20.776818l440.006999 195.57492a51.197623 51.197623 0 0 0 41.616354-93.618511l-460.778607-204.790492A51.197623 51.197623 0 0 0 511.97623-127.999269z"  horiz-adv-x="1024" />

    
    <glyph glyph-name="PathCopy" unicode="&#59368;" d="M3764.655686 896l0.050196-762.483451C3498.014118 42.802196 2572.298039-128 1882.352941-128S265.547294 41.898667 0 131.809882L0.040157 896H3764.655686z"  horiz-adv-x="3764" />

    
    <glyph glyph-name="nav_icon_search" unicode="&#59367;" d="M481.882353 805.647059c216.244706 0 391.529412-175.284706 391.529412-391.529412a390.023529 390.023529 0 0 0-95.232-255.939765l141.974588-140.257882a29.274353 29.274353 0 0 0 0.240941-41.411765l-0.12047-0.12047a29.635765 29.635765 0 0 0-41.773177-0.150589l-142.064941 140.378353A389.993412 389.993412 0 0 0 481.882353 22.588235C265.637647 22.588235 90.352941 197.872941 90.352941 414.117647S265.637647 805.647059 481.882353 805.647059z m0-60.235294C298.917647 745.411765 150.588235 597.082353 150.588235 414.117647s148.329412-331.294118 331.294118-331.294118 331.294118 148.329412 331.294118 331.294118S664.847059 745.411765 481.882353 745.411765z"  horiz-adv-x="1024" />

    
    <glyph glyph-name="LimitSlash_icon_normal" unicode="&#59365;" d="M709.738667 736.810667c3.626667-6.208 6.4-12.885333 8.213333-19.84l13.717333-52.373334a85.333333 85.333333 0 0 1 60.928-60.928l52.352-13.717333a78.890667 78.890667 0 0 0 48.128-116.138667l-27.328-46.72a85.333333 85.333333 0 0 1 0-86.186666l27.306667-46.72a78.890667 78.890667 0 0 0-48.106667-116.138667l-52.352-13.717333a85.333333 85.333333 0 0 1-60.928-60.928l-13.717333-52.352a78.890667 78.890667 0 0 0-116.138667-48.128l-46.72 27.328a85.333333 85.333333 0 0 1-86.186666 0l-46.72-27.306667a78.890667 78.890667 0 0 0-116.138667 48.106667l-13.717333 52.352a85.333333 85.333333 0 0 1-60.928 60.928l-52.352 13.717333a78.890667 78.890667 0 0 0-48.128 116.138667l27.328 46.72a85.333333 85.333333 0 0 1 0 86.186666l-27.306667 46.72a78.890667 78.890667 0 0 0 48.106667 116.138667l52.352 13.717333a85.333333 85.333333 0 0 1 60.928 60.928l13.717333 52.352a78.890667 78.890667 0 0 0 116.138667 48.128l46.72-27.328a85.333333 85.333333 0 0 1 86.186666 0l46.72 27.306667a78.890667 78.890667 0 0 0 107.925334-28.245333z m-36.842667-21.546667a36.224 36.224 0 0 1-46.634667 14.506667l-2.922666-1.536-46.72-27.306667a128 128 0 0 0-124.224-2.816l-5.034667 2.794667-46.72 27.328a36.224 36.224 0 0 1-52.394667-19.093334l-0.917333-2.986666-13.717333-52.352a128 128 0 0 0-86.293334-89.962667l-5.12-1.450667-52.352-13.717333a36.224 36.224 0 0 1-23.616-50.410667l1.536-2.922666 27.306667-46.72a128 128 0 0 0 2.816-124.224l-2.794667-5.034667-27.328-46.72a36.224 36.224 0 0 1 19.093334-52.394667l2.986666-0.917333 52.352-13.717333a128 128 0 0 0 89.962667-86.293334l1.450667-5.12 13.717333-52.352a36.224 36.224 0 0 1 50.410667-23.616l2.922666 1.536 46.72 27.306667a128 128 0 0 0 124.224 2.816l5.034667-2.794667 46.72-27.328a36.224 36.224 0 0 1 52.394667 19.093334l0.917333 2.986666 13.717333 52.352a128 128 0 0 0 86.293334 89.962667l5.12 1.450667 52.352 13.717333a36.224 36.224 0 0 1 23.616 50.410667l-1.536 2.922666-27.306667 46.72a128 128 0 0 0-2.816 124.224l2.794667 5.034667 27.328 46.72a36.224 36.224 0 0 1-19.093334 52.394667l-2.986666 0.917333-52.352 13.717333a128 128 0 0 0-89.962667 86.293334l-1.450667 5.12-13.717333 52.352a36.224 36.224 0 0 1-2.24 6.186666l-1.536 2.922667zM330.972383 233.153983m15.084945 15.084945l301.698893 301.698893q15.084945 15.084945 30.16989 0l0 0q15.084945-15.084945 0-30.169889l-301.698894-301.698893q-15.084945-15.084945-30.169889 0l0 0q-15.084945 15.084945 0 30.169889ZM346.057328 549.937821a85.333333 85.333333 0 1 0 120.679557-120.679557 85.333333 85.333333 0 0 0-120.679557 120.679557z m30.169889-30.169889a42.666667 42.666667 0 1 1 60.339779-60.339779 42.666667 42.666667 0 0 1-60.339779 60.339779zM557.246553 338.748596a85.333333 85.333333 0 1 0 120.679558-120.679557 85.333333 85.333333 0 0 0-120.679558 120.679557z m30.16989-30.169889a42.666667 42.666667 0 1 1 60.339778-60.339779 42.666667 42.666667 0 0 1-60.339778 60.339779z"  horiz-adv-x="1024" />

    
    <glyph glyph-name="LimitSlash_icon_selected" unicode="&#59366;" d="M722.837333 737.642667c3.2-6.357333 5.504-13.162667 6.784-20.181334l9.92-54.016a81.066667 81.066667 0 0 1 53.397334-62.037333l49.024-16.853333a76.309333 76.309333 0 0 0 38.613333-114.666667l-30.890667-46.08a81.066667 81.066667 0 0 1-5.632-80.469333l6.272-13.013334-314.88 69.973334 143.146667 124.458666a20.266667 20.266667 0 0 1 3.562667 26.56l-1.557334 2.026667-0.618666 0.704a20.266667 20.266667 0 0 1-26.56 3.541333l-2.026667-1.536-166.314667-144.576-310.741333 69.034667-19.413333 40.106667a76.309333 76.309333 0 0 0 54.186666 108.202666l50.88 9.856a81.066667 81.066667 0 0 1 61.525334 53.994667l17.322666 52.117333a74.474667 74.474667 0 0 0 113.216 37.632l42.069334-29.269333a81.066667 81.066667 0 0 1 82.901333-5.781333l45.717333 23.125333a74.474667 74.474667 0 0 0 100.096-32.853333z m-360.896-158.506667c-33.877333-29.44-36.992-81.344-6.933333-115.925333 30.037333-34.56 81.877333-38.698667 115.754667-9.237334 33.898667 29.44 36.992 81.344 6.954666 115.925334-30.058667 34.56-81.877333 38.698667-115.776 9.237333z m85.098667-35.925333c15.018667-17.28 13.461333-43.221333-3.477333-57.941334-16.938667-14.72-42.858667-12.672-57.877334 4.608-15.018667 17.28-13.482667 43.242667 3.477334 57.962667 16.938667 14.72 42.858667 12.672 57.877333-4.629333zM174.613333 336.981333l262.4-10.069333-88.576-98.410667a20.266667 20.266667 0 0 1-0.298666-26.794666l1.792-1.834667 0.618666-0.533333a20.266667 20.266667 0 0 1 26.794667-0.298667l1.813333 1.792 111.658667 124.010667 53.845333-2.069334-1.706666-2.048c-26.816-33.408-22.741333-82.730667 10.026666-112.256 33.962667-30.570667 85.845333-28.288 115.882667 5.077334 26.56 29.482667 27.157333 73.408 3.498667 104.32l186.197333-7.168 9.002667-13.866667a76.16 76.16 0 0 0-40.533334-113.856l-49.28-15.936a81.066667 81.066667 0 0 1-54.528-61.056l-10.794666-53.418667a74.581333 74.581333 0 0 0-107.84-51.2l-45.397334 23.893334a81.066667 81.066667 0 0 1-82.816-4.352l-42.666666-28.501334a74.581333 74.581333 0 0 0-112.576 39.658667l-16.32 51.989333a81.066667 81.066667 0 0 1-60.608 55.04l-50.688 10.666667a76.16 76.16 0 0 0-52.202667 109.013333l24.874667 49.024c4.693333 9.258667 7.488 19.178667 8.426666 29.184z m459.989334-37.888c16.96-15.274667 18.56-41.194667 3.52-57.877333-15.018667-16.682667-40.96-17.813333-57.92-2.538667-16.981333 15.296-18.56 41.194667-3.541334 57.877334s40.96 17.813333 57.941334 2.538666zM759.850667 330.538667L81.92 450.048v-71.552zM177.408 454.954667L81.92 492.245333V545.706667z"  horiz-adv-x="1024" />

    
    <glyph glyph-name="Wallet_icon_Cashback" unicode="&#59363;" d="M1493.333333 682.666667a42.666667 42.666667 0 0 0 42.666667-42.666667v-725.333333a42.666667 42.666667 0 0 0-42.666667-42.666667H42.666667a42.666667 42.666667 0 0 0-42.666667 42.666667V640a42.666667 42.666667 0 0 0 42.666667 42.666667h1450.666666z m-43.221333-568.746667a256.725333 256.725333 0 0 1-156.074667-156.074667h93.610667a171.52 171.52 0 0 0 62.464 62.464v93.568zM85.333333 113.92v-93.610667a171.52 171.52 0 0 0 56.533334-52.949333l5.973333-9.514667h93.568A256.725333 256.725333 0 0 1 85.333333 113.877333zM746.666667 469.333333a192.085333 192.085333 0 0 1-187.306667-149.589333L554.666667 320h-85.333334a42.666667 42.666667 0 0 1 0-85.333333h85.333334l4.693333 0.256a192.085333 192.085333 0 0 1 374.613333 0l4.693334-0.256h85.333333a42.666667 42.666667 0 0 1 0 85.333333h-85.333333l-4.693334-0.256A192.085333 192.085333 0 0 1 746.666667 469.333333z m0-85.333333a106.666667 106.666667 0 1 0 0-213.333333 106.666667 106.666667 0 0 0 0 213.333333z m547.925333 213.333333a256.768 256.768 0 0 1 145.792-152.192l10.24-3.882666V534.826667a171.52 171.52 0 0 0-56.490667 52.949333L1388.16 597.333333h-93.568zM242.005333 597.333333l-93.653333-0.042666a171.52 171.52 0 0 0-62.464-62.464v-93.568a256.725333 256.725333 0 0 1 156.074667 156.032zM1642.666667 896a64 64 0 0 0 63.701333-57.856L1706.666667 832v-768a64 64 0 0 0-57.856-63.701333L1642.666667 0h-63.573334v85.333333H1621.333333V810.666667H170.666667v-85.333334H85.333333V832A64 64 0 0 0 143.189333 895.701333L149.333333 896h1493.333334z"  horiz-adv-x="1706" />

    
    <glyph glyph-name="Wallet_icon_Balance" unicode="&#59364;" d="M615.401002 552.365518c15.011199 11.059387 21.180574 10.604502 35.566306 5.174315l0.426455-0.199012c24.705931-10.064326 48.814826-24.478489 72.156102-37.073112 48.445232-26.212737 91.261264-59.987934 129.727461-99.193318 67.095509-68.232721 108.376305-148.889483 115.995625-245.268201 3.212624-40.484748 1.080351-80.599902-11.116247-119.549413a196.993551 196.993551 0 0 0-46.455111-79.149957c-26.923494-27.747973-59.902643-45.289468-95.952264-57.628218-41.223936-14.016138-83.698804-21.77761-126.998152-26.155877-7.505599-0.710758-15.068059-1.93326-22.573658-2.928321H353.216772c-1.535236 0.341164-3.127333 0.852909-4.74786 0.995061-32.126239 2.757739-64.081897 6.368387-95.63953 13.077938-37.584857 7.903624-74.203084 18.90615-107.836129 38.125033-48.047208 27.40681-78.069605 68.517024-91.602428 121.766976-12.054447 46.909996-13.191659 94.502318-6.084085 142.265223a379.828813 379.828813 0 0 0 48.388372 135.527242c27.207797 46.710984 62.518231 86.513404 103.315711 121.624825a454.486782 454.486782 0 0 0 131.746012 79.007805c7.505599 2.956751 14.272011 2.8146 21.265865-1.478376 7.61932-4.634139 15.352362-9.325139 23.597149-12.878926 20.81098-9.040836 43.071905-13.134799 65.588703-15.12492 34.656536-3.098903 68.772897 2.644018 101.26873 10.121187 32.495833 7.448739 51.060819 12.850496 72.92372 28.942046z m-126.230533-116.791674a27.43524 27.43524 0 0 1-27.43524-27.406809v-30.790016c-53.619546-8.358508-90.038761-38.523057-96.094415-91.261264-6.737981-58.026243 27.349949-94.047434 96.094415-115.626031v-108.575318a127.453037 127.453037 0 0 0-54.074431 30.448852 28.117567 28.117567 0 0 1-38.039742-41.366087c27.065646-24.933373 57.969382-40.513178 92.114173-46.625692v-28.743034a27.43524 27.43524 0 1 1 54.87048 0v27.378379c60.670261 8.699672 106.585196 53.818559 106.585196 105.362693 0 50.804947-37.527996 86.229101-106.613627 105.675427v106.926359c20.014931-4.71943 39.688699-15.920968 59.334037-34.173221a28.117567 28.117567 0 1 1 38.267185 41.195506c-30.33513 28.174428-63.029976 45.118887-97.572791 50.17948V408.195465a27.43524 27.43524 0 0 1-27.43524 27.40681z m27.43524-280.322761c35.736888-12.395611 50.321632-28.316579 50.321631-46.881566 0-20.071792-20.185513-41.223936-50.321631-48.246219v95.127785z m-54.87048 165.037893v-90.436785c-31.699785 12.537762-42.759172 28.060706-40.228875 49.809886 2.445006 21.322725 15.636665 34.855548 40.228875 40.626899zM300.535426 709.926243c13.419102-32.438973 26.553901-65.105388 39.290675-97.857094 5.629199-14.527883 15.864108-23.710871 30.33513-27.747973 16.205271-4.491987 32.694845-8.642811 49.326572-11.656423 45.914935-8.102636 91.545567-7.107575 136.237999 7.505599 12.537762 4.093963 24.59221 9.780023 36.106481 16.148411 11.286829 6.254666 17.257192 16.432714 15.636666 29.965536a95.923833 95.923833 0 0 0-0.682328 16.404283c2.615588 50.406923 17.513065 97.231627 40.769051 141.753478 4.349836 8.244787 8.017345 17.285623 9.893745 26.383319 3.7528 18.195392-5.145884 31.18804-22.573659 34.798687-4.008672 0.852909-8.244787 0.852909-12.395611 0.739188a72.127672 72.127672 0 0 1-37.044681-12.679914c-6.567399-4.491987-13.362241-8.898684-20.526677-12.054447-13.475962-5.828212-24.64907-1.478376-31.017458 11.798575-2.87146 5.771351-4.548848 12.054447-7.505599 17.825798-4.435127 8.642811-8.443799 17.825798-14.499453 25.246107-21.948192 27.207797-61.039855 24.819652-79.604841-4.890012a126.742279 126.742279 0 0 1-11.656423-25.644131c-6.226236-18.02481-18.422835-29.169488-37.186833-31.642924-14.726896-1.990121-29.738094-2.132273-44.635572-3.070473 0 0.398024 0 0.852909-0.05686 1.250934-3.610648 0-7.249727 0.199012-10.917236-0.056861-10.945666-0.739188-22.118774-0.398024-32.637985-2.672448-17.285623-3.695939-25.132386-15.892538-22.658949-33.036009 0.9382-5.828212 3.070472-11.599563 5.401757-17.02975 7.391878-16.631726 15.636665-32.979148 22.602089-49.781456z"  horiz-adv-x="1024" />

    
    <glyph glyph-name="Nanopay_icon_loading" unicode="&#59362;" d="M510.826667 580.6933329999999a29.866667 29.866667 0 0 0-29.845334 29.866667V737.386667a29.866667 29.866667 0 1 0 59.712 0v-126.869334c0-16.512-13.376-29.845333-29.866666-29.845333zM413.077333 554.474667a29.866667 29.866667 0 0 0-40.746666 10.88l-63.424 109.866666a29.866667 29.866667 0 0 0 51.626666 29.866667l63.424-109.866667a29.802667 29.802667 0 0 0-10.88-40.746666zM341.525333 482.922667a29.802667 29.802667 0 0 0-40.746666-10.88L190.933333 535.4666669999999a29.824 29.824 0 1 0 29.866667 51.626666l109.866667-63.424a29.866667 29.866667 0 0 0 10.88-40.746666zM315.306667 385.173333a29.866667 29.866667 0 0 0-29.866667-29.866666H158.613333a29.866667 29.866667 0 0 0 0 59.712h126.869334c16.512 0 29.845333-13.376 29.845333-29.866667zM341.525333 287.40266699999995a29.866667 29.866667 0 0 0-10.88-40.746667l-109.866666-63.424a29.866667 29.866667 0 0 0-29.866667 51.626667l109.866667 63.424a29.802667 29.802667 0 0 0 40.746666-10.88zM413.077333 215.85066700000004a29.802667 29.802667 0 0 0 10.88-40.746667L360.533333 65.27999999999997a29.824 29.824 0 0 0-51.626666 29.866667l63.424 109.845333a29.866667 29.866667 0 0 0 40.746666 10.88zM510.826667 189.63199999999995a29.866667 29.866667 0 0 0 29.866666-29.866667v-126.848a29.866667 29.866667 0 0 0-59.712 0V159.78666699999997c0 16.512 13.376 29.845333 29.866667 29.845333zM608.597333 215.85066700000004a29.866667 29.866667 0 0 0 40.746667-10.88l63.424-109.866667a29.866667 29.866667 0 0 0-51.626667-29.845333l-63.424 109.866666a29.802667 29.802667 0 0 0 10.88 40.725334zM680.149333 287.40266699999995a29.802667 29.802667 0 0 0 40.746667 10.88l109.845333-63.424a29.824 29.824 0 0 0-29.866666-51.626667l-109.845334 63.424a29.866667 29.866667 0 0 0-10.88 40.746667zM706.368 385.173333a29.866667 29.866667 0 0 0 29.866667 29.845334h126.848a29.866667 29.866667 0 1 0 0-59.712H736.213333a29.866667 29.866667 0 0 0-29.845333 29.866666zM680.149333 482.922667a29.866667 29.866667 0 0 0 10.88 40.746666l109.866667 63.424a29.866667 29.866667 0 0 0 29.845333-51.626666l-109.866666-63.424a29.802667 29.802667 0 0 0-40.725334 10.88zM594.709333 572.586667a29.802667 29.802667 0 0 0 2.986667 22.613333l63.445333 109.866667a29.824 29.824 0 0 0 51.626667-29.866667l-63.424-109.824a29.866667 29.866667 0 0 0-54.613333 7.210667z"  horiz-adv-x="1024" />

    
    <glyph glyph-name="Category_icon_Automotive" unicode="&#59339;" d="M705.92 698.666667a58.666667 58.666667 0 0 0 55.552-39.829334l72.874667-214.954666a80 80 0 0 0 77.653333-79.957334v-202.666666a58.666667 58.666667 0 0 0-58.666667-58.666667h-45.845333l0.128-2.197333V64a21.333333 21.333333 0 0 0-42.517333-2.496L764.949333 64v36.394667l0.106667 2.197333H253.290667l0.128-2.197333V64a21.333333 21.333333 0 0 0-42.517334-2.496L210.773333 64v36.394667l0.128 2.197333H170.666667a58.666667 58.666667 0 0 0-58.56 55.082667l-0.106667 3.584v202.666666A80 80 0 0 0 192 443.925333l-2.368-0.064 72.896 214.976A58.666667 58.666667 0 0 0 318.08 698.666667h387.84zM832 411.925333H192a48 48 0 0 1-48-48v-202.666666c0-14.72 11.946667-26.666667 26.666667-26.666667h682.666666c14.72 0 26.666667 11.946667 26.666667 26.666667v202.666666a48 48 0 0 1-48 48z m-548.565333-74.986666c25.237333 0 45.717333-20.373333 45.717333-45.482667 0-25.130667-20.48-45.504-45.717333-45.504a45.610667 45.610667 0 0 0-45.717334 45.504c0 25.109333 20.48 45.482667 45.717334 45.482667z m457.130666 0c25.258667 0 45.717333-20.373333 45.717334-45.482667 0-25.130667-20.48-45.504-45.717334-45.504a45.610667 45.610667 0 0 0-45.717333 45.504c0 25.109333 20.48 45.482667 45.717333 45.482667zM705.92 666.666667H318.08l-2.837333-0.149334a26.666667 26.666667 0 0 1-22.4-17.962666l-69.397334-204.629334h577.088L731.178667 648.533333a26.666667 26.666667 0 0 1-25.258667 18.112z"  horiz-adv-x="1024" />

    
    <glyph glyph-name="Category_icon_Electronics" unicode="&#59340;" d="M512 677.333333a16 16 0 0 0 16-16v-576a16 16 0 0 0-16-16H170.666667a16 16 0 0 0-16 16V661.333333a16 16 0 0 0 16 16z m341.333333-234.666666a16 16 0 0 0 16-16v-341.333334a16 16 0 0 0-16-16H597.333333a16 16 0 0 0-16 16V426.666667a16 16 0 0 0 16 16z m-357.333333 202.666666H186.666667v-544h309.333333v544z m338.176-490.517333L832 154.666667H613.333333v-53.333334h224l0.021334 54.250667a15.893333 15.893333 0 0 0-3.2-0.768zM341.333333 400a122.666667 122.666667 0 1 0 0-245.333333 122.666667 122.666667 0 0 0 0 245.333333z m496 10.666667h-224v-224H832c1.877333 0 3.690667-0.32 5.354667-0.917334L837.333333 410.666667z m-496-42.666667a90.666667 90.666667 0 1 1 0-181.333333 90.666667 90.666667 0 0 1 0 181.333333z m0-32a58.666667 58.666667 0 1 0 0-117.333333 58.666667 58.666667 0 0 0 0 117.333333z m384 42.666667a80 80 0 1 0 0-160 80 80 0 0 0 0 160z m-384-74.666667a26.666667 26.666667 0 1 1 0-53.333333 26.666667 26.666667 0 0 1 0 53.333333z m384 42.666667a48 48 0 1 1 0-96 48 48 0 0 1 0 96z m-384 224a58.666667 58.666667 0 1 0 0-117.333334 58.666667 58.666667 0 0 0 0 117.333334z m0-32a26.666667 26.666667 0 1 1 0-53.333334 26.666667 26.666667 0 0 1 0 53.333334z"  horiz-adv-x="1024" />

    
    <glyph glyph-name="Category_icon_BeautyHealth" unicode="&#59341;" d="M685.589333 721.194667a37.333333 37.333333 0 0 0 55.744-32.490667v-160.682667l21.333334-0.021333v-192h21.333333V42.666667A37.333333 37.333333 0 0 0 746.666667 5.333333h-149.333334A37.333333 37.333333 0 0 0 560 42.666667V336h21.333333v192h21.333334v124.437333c0 12.309333 6.08 23.765333 16.085333 30.698667l2.837333 1.770667zM378.666667 485.333333V42.666667A37.333333 37.333333 0 0 0 341.333333 5.333333h-64A37.333333 37.333333 0 0 0 240 42.666667V485.333333h138.666667z m373.333333-181.333333h-160V42.666667a5.333333 5.333333 0 0 1 4.117333-5.184l1.216-0.149334h149.333334a5.333333 5.333333 0 0 1 5.333333 5.333334V304z m-405.333333 149.333333h-74.666667V42.666667a5.333333 5.333333 0 0 1 4.117333-5.184l1.216-0.149334h64a5.333333 5.333333 0 0 1 5.333334 5.333334V453.333333z m384 42.666667h-117.333334v-160h117.333334v160zM309.333333 745.088c77.141333 0 141.013333-38.229333 175.018667-100.074667l5.44-9.898666-104.597333-117.781334h-145.429334L122.453333 633.877333l4.778667 10.197334c31.402667 67.157333 96.618667 101.013333 182.101333 101.013333z m399.296-53.76a5.333333 5.333333 0 0 1-7.253333 2.026667l-64-36.288a5.333333 5.333333 0 0 1-2.709333-4.629334v-124.437333h74.666666V688.704a5.333333 5.333333 0 0 1-0.32 1.813333zM309.333333 713.109333c-69.205333 0-120.512-24.32-147.818666-72.32l-0.213334-0.362666 91.648-91.050667h14.122667l-22.869333 75.328a16 16 0 0 0 29.866666 11.328l0.746667-2.026667 25.685333-84.608h24.32l22.4 84.074667a16 16 0 0 0 31.317334-6.101333l-0.426667-2.133334-20.202667-75.84 12.885334-0.021333 79.786666 89.834667-3.52 5.290666c-28.8 41.237333-75.264 66.666667-131.221333 68.48z"  horiz-adv-x="1024" />

    
    <glyph glyph-name="Category_icon_Featured" unicode="&#59342;" d="M512 762.666667c162.005333 0 293.333333-131.328 293.333333-293.333334 0-86.016-37.013333-163.370667-96-217.024V42.666667a16 16 0 0 0-31.850666-2.176L677.333333 42.666667v184.341333A291.968 291.968 0 0 0 512 176a292.053333 292.053333 0 0 0-176 58.645333v-166.016l76.437333 38.357334 92.458667-46.4 85.248 42.794666a16 16 0 0 0 20.373333-5.248l1.109334-1.856a16 16 0 0 0-5.226667-20.373333l-1.877333-1.109333-99.605334-50.026667-92.48 46.421333-108.437333-54.464V256c0 1.941333 0.341333 3.818667 0.981333 5.546667A292.330667 292.330667 0 0 0 218.666667 469.333333c0 162.005333 131.328 293.333333 293.333333 293.333334z m0-32c-144.32 0-261.333333-117.013333-261.333333-261.333334S367.68 208 512 208 773.333333 325.013333 773.333333 469.333333 656.32 730.666667 512 730.666667z m-30.378667-84.288a37.333333 37.333333 0 0 0 60.757334 0l48.704-68.138667 79.914666-25.322667a37.333333 37.333333 0 0 0 25.173334-43.733333l-0.853334-3.114667a37.333333 37.333333 0 0 0-5.546666-10.901333l-49.792-67.434667 0.64-83.776a37.333333 37.333333 0 0 0-33.984-37.461333l-3.050667-0.149333a37.333333 37.333333 0 0 0-12.096 1.92L512 334.741333l-79.466667-26.517333a37.333333 37.333333 0 0 0-46.08 20.608l-1.152 3.008a37.333333 37.333333 0 0 0-1.92 12.096L384 427.733333l-49.749333 67.413334a37.333333 37.333333 0 0 0 5.205333 50.090666l2.645333 2.133334a37.333333 37.333333 0 0 0 10.901334 5.546666l79.893333 25.322667z m33.493334-17.386667a5.333333 5.333333 0 0 1-7.466667-1.237333l-54.933333-76.821334-90.026667-28.522666a5.333333 5.333333 0 0 1-2.709333-8.256l56.106666-75.989334-0.725333-94.442666a5.333333 5.333333 0 0 1 7.04-5.12l89.6 29.866666 89.6-29.866666a5.333333 5.333333 0 0 1 7.018667 5.12l-0.704 94.442666 56.106666 75.989334a5.333333 5.333333 0 0 1-2.688 8.256l-90.048 28.522666-54.954666 76.821334a5.333333 5.333333 0 0 1-1.237334 1.237333z"  horiz-adv-x="1024" />

    
    <glyph glyph-name="Category_icon_MobilesAccessories" unicode="&#59343;" d="M762.666667 784v-442.026667a16 16 0 0 0-31.850667-2.133333l-0.149333 2.133333V752h-437.333334v-693.333333h437.333334v186.069333H352.810667a16 16 0 0 0-15.850667 13.824l-0.149333 2.176a16 16 0 0 0 13.845333 15.850667l2.154667 0.149333H762.666667V26.666667h-501.333334V784h501.333334zM512 199.424a42.666667 42.666667 0 1 0 0-85.333333 42.666667 42.666667 0 0 0 0 85.333333zM576 698.666667a16 16 0 0 0 2.176-31.850667L576 666.666667h-128a16 16 0 0 0-2.176 31.850666L448 698.666667h128z"  horiz-adv-x="1024" />

    
    <glyph glyph-name="Category_icon_HomeLiving" unicode="&#59344;" d="M815.445333 698.666667v-157.418667l-0.128-1.664h54.016v-404.885333a16 16 0 0 0-31.850666-2.154667l-0.149334 2.154667V507.584h-147.669333v-194.432H334.336v194.432H186.666667v-356.864h576.490666c3.861333 0 7.402667-1.386667 10.176-3.669333 4.394667-2.816 7.466667-7.509333 8.170667-12.949334l0.128-2.282666v-79.146667a18.133333 18.133333 0 0 0-36.117333-2.282667l-0.149334 2.282667v66.048H295.189333v-66.048a18.133333 18.133333 0 0 0-36.096-2.282667l-0.149333 2.282667-0.021333 66.048H154.666667V539.562667h53.994666l-0.106666 1.664V698.666667h606.890666z m-32.021333-32H240.554667v-125.418667l-0.106667-1.664h125.866667v-194.432h291.349333v194.432h125.866667l-0.085334 1.664-0.021333 125.418667z"  horiz-adv-x="1024" />

    
    <glyph glyph-name="Category_icon_MensShoes" unicode="&#59345;" d="M521.237333 556.437333c8.96 48.426667 69.994667 47.253333 79.36-2.666666l1.002667-4.906667c28.053333-124.330667 268.8-119.509333 302.741333-4.330667 12.224 28.458667 48.298667 31.722667 58.986667-0.362666 48.170667-120.256 44.245333-204.864-4.992-295.786667l1.898667 3.584 0.042666-97.301333h-271.573333l-0.021333 78.037333-137.386667-78.037333H26.666667V256l0.213333 2.538667c9.557333 59.690667 57.472 83.370667 176.938667 92.970666l15.317333 1.130667c165.034667 22.656 264.96 89.664 302.208 203.157333l-0.384-1.109333z m47.36-6.058666c-3.733333 13.44-14.378667 12.672-16.170666-1.536l-0.661334-3.008c-41.536-126.549333-152.128-200.725333-329.386666-225.002667-99.008-6.72-142.442667-20.053333-157.888-48.832H404.053333a16 16 0 0 0 2.176-31.850667l-2.176-0.149333H64a15.978667 15.978667 0 0 0-5.354667 0.917333l0.021334-54.250666h484.138666l177.877334 100.992v-100.992h207.573333v53.333333H832a16 16 0 0 0-2.176 31.850667L832 272h102.613333c40.405333 79.168 42.176 152.554667-1.322666 261.162667l0.512-1.28-0.896-2.922667c-47.189333-139.562667-328.832-143.253333-362.730667 13.738667l-1.045333 5.333333z"  horiz-adv-x="1024" />

    
    <glyph glyph-name="Category_icon_JewelryAccessories" unicode="&#59346;" d="M747.562667 498.688c50.624-54.805333 79.104-125.354667 79.104-200.149333 0-166.848-141.034667-301.824-314.666667-301.824S197.333333 131.690667 197.333333 298.538667c0 74.410667 28.181333 144.64 78.357334 199.317333a16 16 0 0 0 23.573333-21.632c-44.821333-48.853333-69.930667-111.402667-69.930667-177.685333 0-148.864 126.4-269.824 282.666667-269.824s282.666667 120.96 282.666667 269.824c0 66.624-25.365333 129.450667-70.613334 178.432a16 16 0 0 0 23.509334 21.717333z m-5.013334 184.32l26.645334-79.893333L554.026667 382.08a58.666667 58.666667 0 0 0-82.944-1.109333L254.805333 603.093333l26.645334 79.914667h461.098666z m-330.325333-31.978667h-107.733333l-13.184-39.552 197.44-202.773333-76.522667 242.346667z m307.264 0h-101.568l-81.834667-241.472 196.586667 201.92-13.184 39.552z m-135.36 0h-138.346667l66.752-211.306666 71.594667 211.306666z m67.242667 101.674667a16 16 0 0 0 2.176-31.850667l-2.176-0.149333H372.629333a16 16 0 0 0-2.176 31.850667l2.176 0.149333h278.741334z"  horiz-adv-x="1024" />

    
    <glyph glyph-name="Category_icon_HomeAppliances" unicode="&#59347;" d="M518.101333 805.333333c28.586667 0 52.565333-20.970667 52.565334-48v-16h86.186666a58.666667 58.666667 0 0 0 58.368-64.512l-4.224-42.154666H725.333333c31.210667 0 56.704-24.362667 58.453334-56.832l0.085333-3.776L765.653333 426.666667a58.666667 58.666667 0 0 0-55.104-58.56l-3.562666-0.106667h-22.656l-6.826667-68.288 51.349333-222.506667a58.666667 58.666667 0 0 0-40.512-69.461333l-3.456-0.917333a58.666667 58.666667 0 0 0-13.184-1.493334H309.632a58.666667 58.666667 0 0 0-57.173333 71.850667l51.349333 222.528-37.696 377.109333A58.666667 58.666667 0 0 0 324.48 741.333333h86.186667V757.333333c0 25.898667 22.016 46.250667 49.024 47.893334l3.541333 0.106666z m130.496-522.666666H332.714667l-49.066667-212.672a26.666667 26.666667 0 0 1-0.512-2.986667l-0.170667-3.008c0-14.72 11.946667-26.666667 26.666667-26.666667h362.069333a26.666667 26.666667 0 0 1 25.984 32.661334l-49.088 212.672zM490.666667 229.333333a58.666667 58.666667 0 1 0 0-117.333333 58.666667 58.666667 0 0 0 0 117.333333z m0-32a26.666667 26.666667 0 1 1 0-53.333333 26.666667 26.666667 0 0 1 0 53.333333z m166.186666 512H324.48c-14.72 0-26.666667-11.946667-26.666667-26.666666l0.128-2.645334 36.522667-365.354666h312.384l36.544 365.354666A26.666667 26.666667 0 0 1 656.853333 709.333333z m68.48-106.666666h-17.536l-20.266666-202.666667h19.456c13.802667 0 25.173333 10.496 26.624 25.557333l0.170666 3.050667L752 576a26.666667 26.666667 0 0 1-23.936 26.538667L725.333333 602.666667zM538.666667 448a16 16 0 1 0 0-32h-96a16 16 0 1 0 0 32h96z m0 85.333333a16 16 0 1 0 0-32h-96a16 16 0 1 0 0 32h96z m0 85.333334a16 16 0 1 0 0-32h-96a16 16 0 1 0 0 32h96z m-20.565334 154.666666h-54.869333c-11.797333 0-20.565333-7.68-20.565333-16v-16h96V757.333333c0 7.68-7.466667 14.805333-17.92 15.872l-2.645334 0.128z"  horiz-adv-x="1024" />

    
    <glyph glyph-name="Category_icon_WomensClothing" unicode="&#59348;" d="M657.152 762.666667a16 16 0 0 0 15.850667-13.824l0.149333-2.176v-98.048L608.853333 490.453333l241.664-340.629333-4.117333-8.533333c-8.725333-18.026667-29.994667-43.584-68.181333-68.565334-62.101333-40.618667-149.525333-64.768-266.218667-64.768-116.693333 0-204.117333 24.149333-266.218667 64.768-36.053333 23.594667-57.045333 47.701333-66.624 65.493334l-1.557333 3.093333-4.117333 8.490667 240.512 340.693333-63.146667 159.274667V746.666667a16 16 0 0 0 31.850667 2.176l0.149333-2.176v-90.794667l67.285333-169.706667L211.136 147.626667l0.554667-0.789334c1.109333-1.514667 2.346667-3.2 3.797333-4.992l2.261333-2.773333c11.136-13.376 26.112-26.88 45.546667-39.594667 56.704-37.077333 138.026667-59.52 248.704-59.52 110.698667 0 192 22.442667 248.704 59.52 19.413333 12.714667 34.410667 26.218667 45.546667 39.573334l2.261333 2.794666 4.330667 5.76-240.234667 338.624 68.522667 168.682667V746.666667a16 16 0 0 0 13.845333 15.850666l2.176 0.149334z m-44.352-72.853334a16 16 0 0 0-8.213333-21.077333c-26.026667-11.434667-47.104-23.061333-63.616-34.24l-8.341334-5.888a115.52 115.52 0 0 1-8.533333-6.826667l-12.096-11.733333-11.157333 10.88c-2.410667 2.346667-8.213333 7.082667-17.813334 13.568-16.512 11.178667-37.568 22.826667-63.616 34.24a16 16 0 0 0 12.864 29.312c35.946667-15.786667 61.397333-30.890667 77.653334-43.072l2.069333-1.578667 2.069333 1.578667c15.146667 11.370667 38.357333 25.28 70.613334 39.914667l7.04 3.157333a16 16 0 0 0 21.077333-8.234667z"  horiz-adv-x="1024" />

    
    <glyph glyph-name="Category_icon_Watches" unicode="&#59349;" d="M677.333333 826.666667v-179.008c77.290667-52.821333 128-141.653333 128-242.325334s-50.709333-189.504-128-242.325333v-179.008h-330.666666v178.986667c-77.269333 52.842667-128 141.653333-128 242.346666s50.730667 189.504 128 242.346667V826.666667h330.666666z m-31.978666-682.666667c-40-20.48-85.333333-32-133.354667-32-48 0-93.333333 11.52-133.333333 32v-128h266.666666zM512 666.666667c-144.32 0-261.333333-117.013333-261.333333-261.333334S367.68 144 512 144 773.333333 261.013333 773.333333 405.333333 656.32 666.666667 512 666.666667z m11.648-96.896a16 16 0 0 0 15.850667-13.845334l0.149333-2.154666v-159.274667H405.333333a16 16 0 0 0-2.176 31.850667l2.176 0.149333h102.314667v127.274667a16 16 0 0 0 13.824 15.850666l2.176 0.149334zM645.333333 794.666667h-266.666666v-128c40 20.48 85.333333 32 133.333333 32 48.021333 0 93.354667-11.52 133.354667-32l-0.021334 128z"  horiz-adv-x="1024" />

    
    <glyph glyph-name="Category_icon_MensBags" unicode="&#59351;" d="M569.6 741.333333l4.629333-0.085333c46.336-1.92 85.418667-32.213333 100.586667-74.090667H723.2l-0.021333-22.784h188.821333V69.333333H112V644.373333h188.8v22.784h48.384C364.864 710.4 406.037333 741.333333 454.4 741.333333h115.2z m140.224-439.189333l-5.824-0.085333-137.6 0.021333v-58.197333h-108.8V302.08H320c-74.112 0-139.157333 39.104-176 97.984V101.333333h736V400.085333c-35.861333-57.344-98.474667-95.957333-170.176-97.941333z m-175.445333 58.112H489.6v-84.373333h44.778667v84.373333z m-176.277334 252.117333H144V512c0-96.490667 75.946667-174.976 170.624-177.856l5.376-0.085333 137.6 0.021333v58.154667h108.8v-58.154667H704c95.36 0 173.077333 76.693333 175.914667 172.48L880 512v100.373333l-214.101333 0.021334-0.298667-0.021334h-0.32l-306.581333 0.021334-0.298667-0.021334h-0.298667zM569.6 709.333333h-115.2l-4.117333-0.106666c-36.906667-1.898667-67.242667-29.098667-74.325334-64.853334h272.085334c-7.36 37.077333-39.701333 64.96-78.442667 64.96z"  horiz-adv-x="1024" />

    
    <glyph glyph-name="Category_icon_MaternityMaternityCare" unicode="&#59352;" d="M422.293333 481.877333c3.072-2.986667 9.834667-8.106667 20.010667-13.354666 37.418667-19.349333 83.669333-21.44 138.88 5.205333a43.925333 43.925333 0 0 0 15.573333 7.402667c32.405333 8.170667 61.717333-6.186667 77.717334-34.666667 46.293333-82.517333 69.269333-208.170667 45.738666-275.285333-4.736-13.504-16-26.773333-31.573333-39.210667l-0.469333 4.864c2.56-34.432 11.413333-64.768 24.533333-90.922667 5.482667-10.944 11.328-20.352 17.130667-28.202666l3.050666-3.989334c1.834667-2.325333 3.2-3.882667 4.010667-4.736a16 16 0 1 0-22.997333-22.229333c-7.808 8.064-18.88 23.061333-29.781334 44.8a268.629333 268.629333 0 0 0-25.322666 80.426667c-61.098667-35.2-151.957333-59.392-207.04-55.573334l0.810666-0.042666-3.029333-0.042667a65.045333 65.045333 0 0 0-9.92 1.130667l-3.584 0.789333-3.584 1.002667c-14.464 4.586667-25.792 14.250667-30.592 29.717333-7.765333 25.045333 4.48 44.629333 22.08 56.170667 4.906667 3.2 9.728 5.909333 16.042667 9.045333l8.384 4.032 18.645333 8.469333c17.792 7.829333 43.712 18.730667 51.925333 22.250667l7.381334 3.349333c26.261333 12.458667 37.824 23.104 43.84 41.066667 4.266667 12.842667 1.28 29.696-10.026667 64.853333l-4.266667 13.312c-5.418667 17.152-8.085333 27.093333-9.664 37.226667l-0.746666 5.589333c-3.050667 26.026667-0.469333 52.394667 6.613333 74.368-46.976-12.672-88.896-6.976-124.458667 11.413334a150.613333 150.613333 0 0 0-15.253333 9.002666l-2.858667 1.984-0.938666-0.554666c-79.274667-47.210667-91.093333-101.376-38.293334-170.794667l3.413334-4.352a16 16 0 0 0-13.930667-25.877333c-107.690667 9.237333-158.592-134.869333-62.229333-253.781334a16 16 0 1 0-24.853334-20.138666c-102.485333 126.442667-59.093333 286.229333 54.613334 304.64l3.52 0.512-1.834667 2.986666c-46.058667 77.226667-22.314667 145.365333 68.906667 197.589334l5.546666 3.114666a16 16 0 0 0 18.88-2.56z m222.464-48.085333c-9.386667 14.4-23.765333 20.586667-40.533333 16.213333l1.536 0.362667-4.672-2.474667c-1.216-0.64-2.410667-1.237333-3.626667-1.834666-13.802667-12.416-24.661333-50.176-20.245333-88 1.066667-9.109333 3.114667-17.493333 8.042667-33.386667l7.381333-23.168c11.861333-37.824 14.805333-57.514667 7.872-78.293333-9.813333-29.312-28.885333-45.632-66.112-62.464-4.394667-1.984-41.642667-17.557333-60.394667-25.962667l-15.957333-7.402667a135.402667 135.402667 0 0 1-16.576-9.024c-7.04-4.608-11.562667-11.84-9.045333-19.904 2.325333-7.530667 12.8-10.837333 18.645333-10.197333l2.901333 0.064c70.037333-4.864 220.074667 47.936 236.032 93.44 20.074667 57.237333-1.258667 173.866667-43.434666 249.045333zM514.773333 861.312c46.144 0 77.269333-31.274667 81.066667-68.906667l0.234667-3.072 5.418666-3.114666c41.173333-24.832 66.496-66.986667 68.309334-116.565334l0.106666-5.76c0-90.325333-69.098667-178.069333-155.136-178.069333-85.994667 0-155.093333 87.744-155.114666 178.069333 0 54.016 27.562667 99.84 73.216 125.12L433.493333 789.333333l0.234667 3.050667c3.690667 36.330667 32.789333 66.773333 76.330667 68.821333z m25.578667-181.162667l-1.685333-1.877333c-33.941333-36.245333-81.216-55.253333-140.8-57.130667 16.362667-56.746667 63.466667-103.317333 116.906666-103.317333 56.64 0 106.176 52.266667 119.573334 113.578667-36.693333 0.661333-67.285333 15.765333-90.794667 44.650666l-3.2 4.096z m-25.6 149.184c-30.826667 0-49.408-20.693333-49.408-44.8l0.96-14.869333-9.92-4.586667c-40.426667-18.709333-64.725333-55.914667-64.725333-101.184 0-3.626667 0.128-7.253333 0.405333-10.858666 62.570667 0.853333 107.498667 22.016 136.469333 63.445333a16 16 0 0 0 27.050667-1.301333c19.925333-35.306667 46.72-52.138667 82.346667-51.84v0.554666c0 45.248-24.32 82.474667-64.746667 101.184l-9.941333 4.586667 0.704 10.922667 0.256 3.584-0.042667 3.498666c-1.557333 22.698667-19.882667 41.664-49.386667 41.664z"  horiz-adv-x="1024" />

    
    <glyph glyph-name="Category_icon_MensClothing" unicode="&#59353;" d="M614.741333 762.666667l-0.170666-0.554667a15.914667 15.914667 0 0 0 6.826666-3.84l1.6-1.770667 32.170667-41.301333 124.330667-50.858667 68.501333-574.549333-128-6.848v-39.744h-416v39.637333l-129.749333 6.954667 63.168 574.826667 117.909333 44.096a16 16 0 0 0 4.522667 0.981333l41.856 47.530667a15.936 15.936 0 0 0 8.576 5.077333l-0.106667 0.362667h204.586667zM336 75.221333h122.538667V354.453333c0 1.6 0.213333 3.093333 0.64 4.522667l0.042666 0.106667 7.04 23.296-149.269333 167.893333 44.864 59.477333-51.456 43.733334 5.610667 6.378666-48.938667-18.304-57.322667-521.6 94.229334-5.077333 0.021333 181.376a16 16 0 0 0 13.824 15.850667l2.176 0.149333a16 16 0 0 0 15.850667-13.824l0.149333-2.176v-221.034667z m358.698667 589.248l6.741333-8.682666-38.677333-38.506667 39.04-43.776-211.264-225.344v-272.938667h197.461333v6.016l-1.92-0.106666V296.256l0.170667 2.176a16 16 0 0 0 15.850666 13.824l2.154667-0.149333a16 16 0 0 0 13.845333-15.850667v-181.376l94.08 5.056-62.208 521.92-55.274666 22.613333zM604.373333 728.362667l-94.72-313.024 148.778667 158.72-39.701333 44.501333 40.064 39.936-54.421334 69.866667z m-183.466666 2.261333l-64.981334-73.856 49.664-42.197333-47.274666-62.634667 118.826666-133.632 23.637334 78.144-1.258667 1.6-1.066667 1.834667-0.810666 2.005333L420.906667 730.624z m150.72 0.042667h-116.992l61.525333-183.381334 55.466667 183.381334z"  horiz-adv-x="1024" />

    
    <glyph glyph-name="Category_icon_ToysBabyProducts" unicode="&#59354;" d="M260.821333 741.333333c99.029333 0 179.093333-57.792 206.848-120.426666 1.792-4.053333 3.434667-8.149333 4.906667-12.266667 9.621333-26.794667 12.16-47.36 12.608-96.362667l0.021333-4.693333h142.826667l1.28 5.482667c15.829333 61.653333 73.813333 108.010667 140.032 110.293333l5.12 0.085333a144.213333 144.213333 0 0 0 136.682667-97.493333l2.666666-7.829333-77.333333-106.474667-12.8 8.490667a21.930667 21.930667 0 0 1-15.082667 3.456 21.824 21.824 0 0 1-18.794666-24.448l23.104-167.04c0.256-1.706667 0.704-3.413333 1.365333-5.034667l1.002667-3.712 17.194666-118.869333 0.149334-2.346667a61.077333 61.077333 0 0 0-61.141334-60.757333h-122.133333l-1.28 14.570666c-7.466667 84.053333-44.650667 123.2-114.922667 123.2-70.272 0-107.456-39.146667-114.922666-123.2l-1.28-14.570666h-126.016a61.077333 61.077333 0 0 0-61.098667 60.778666l0.426667 3.712 60.181333 254.165334v75.968l-105.301333-25.28-3.776-0.426667c-14.421333 0.042667-26.154667 11.669333-26.048 24.064L133.546667 599.253333l-47.274667 40.149334 6.4 11.477333c13.461333 24.192 21.44 35.818667 33.28 46.72l8.746667 8.170667c4.842667 4.224 9.92 8.021333 15.786666 11.605333 25.109333 15.317333 60.224 23.957333 110.314667 23.957333z m0-32c-44.522667 0-73.898667-7.210667-93.653333-19.264a81.322667 81.322667 0 0 1-12.330667-9.237333l-9.621333-9.109333c-5.589333-5.610667-10.517333-12.330667-17.109333-23.381334l-0.96-1.642666 36.544-31.04 22.506666-171.754667 136.234667 32.682667v-118.464l-0.426667-3.669334-60.117333-253.781333 0.064-1.216a29.077333 29.077333 0 0 1 26.218667-25.941333l2.794666-0.128h97.002667l0.64 4.309333c12.970667 85.376 60.096 131.306667 138.858667 133.397333l5.674666 0.064c82.154667 0 131.242667-46.037333 144.533334-133.461333l0.597333-4.309333h93.184a29.098667 29.098667 0 0 1 29.013333 26.069333l0.106667 1.941333-16.789333 115.882667-0.661334 1.92a53.226667 53.226667 0 0 0-1.130666 4.224l-0.768 4.309333-23.125334 167.04a53.845333 53.845333 0 0 0 67.584 59.136l1.578667-0.490666 50.688 69.781333-0.661333 1.621333a112.277333 112.277333 0 0 1-97.856 66.517334l-4.970667 0.106666c-59.136 0-111.082667-45.141333-116.842667-101.504l0.064 0.682667v-119.466667a37.333333 37.333333 0 0 0-34.261333-37.205333l-3.072-0.128h-129.749333a37.333333 37.333333 0 0 0-37.205334 34.261333l-0.128 3.072v127.232c-0.128 50.986667-1.706667 71.509333-8.810666 93.610667l-1.984 5.824a150.506667 150.506667 0 0 1-4.053334 10.133333c-22.848 51.562667-91.882667 101.376-177.6 101.376zM625.706667 475.584h-140.416v-104.426667a5.333333 5.333333 0 0 1 4.117333-5.184l1.216-0.149333h129.749333a5.333333 5.333333 0 0 1 5.205334 4.117333l0.128 1.216v104.426667z"  horiz-adv-x="1024" />

    
    <glyph glyph-name="Category_icon_WomensBags" unicode="&#59355;" d="M512 762.666667c108.16 0 196.842667-83.541333 205.013333-189.610667h41.088a58.666667 58.666667 0 0 0 58.346667-52.437333l42.666667-398.421334a101.333333 101.333333 0 0 0-100.736-112.128H265.6a101.333333 101.333333 0 0 0-100.757333 112.128L207.573333 520.618667a58.666667 58.666667 0 0 0 58.346667 52.416h41.088c8.170667 106.090667 96.853333 189.632 205.013333 189.632z m75.925333-440.64l-3.498666-0.768a72.896 72.896 0 0 0-144.853334 0 338.688 338.688 0 0 0-206.336 138.730666L196.693333 118.784a69.333333 69.333333 0 0 1 68.928-76.714667H758.4a69.333333 69.333333 0 0 1 68.928 76.714667l-36.544 341.205333a338.773333 338.773333 0 0 0-202.837333-137.962666zM512 370.368c-20.864 0-38.101333-15.637333-40.576-35.84a12.16 12.16 0 0 0-0.213333-2.901333l-0.042667-0.170667-0.064-1.984c0-21.504 16.618667-39.125333 37.696-40.746667l3.2-0.128a40.896 40.896 0 1 1 0 81.770667z m246.101333 170.666667H265.898667a26.666667 26.666667 0 0 1-26.517334-23.829334l-0.490666-4.330666 2.517333-4.842667a306.922667 306.922667 0 0 1 201.685333-154.773333 72.917333 72.917333 0 0 0 137.813334 0 306.901333 306.901333 0 0 1 204.202666 159.616l-0.490666 4.330666a26.666667 26.666667 0 0 1-26.517334 23.829334zM512 730.666667a173.653333 173.653333 0 0 1-172.906667-157.610667h345.813334A173.653333 173.653333 0 0 1 512 730.666667z"  horiz-adv-x="1024" />

    
    <glyph glyph-name="Category_icon_KidsBabyFashion" unicode="&#59356;" d="M606.357333 784a16 16 0 0 0 4.736-0.725333l2.261334-0.874667 109.632-53.376c17.066667-10.368 30.72-24.490667 39.466666-41.066667l2.453334-5.056 123.605333-263.210666c5.824-15.914667-0.362667-33.173333-15.018667-40.768l-2.837333-1.301334-33.664-15.317333c-14.442667-6.592-31.786667-3.413333-40.917333 7.253333l-1.834667 2.389334-45.482667 50.858666 0.32-2.624a723.050667 723.050667 0 0 0-1.408-171.029333l-1.941333-14.293333-2.24-14.293334-47.36-180.117333c-3.818667-13.802667-16.981333-23.765333-31.296-25.024l-3.093333-0.128h-73.258667c-14.442667 0-27.413333 8.170667-32.298667 21.013333l-0.917333 2.816-42.538667 141.44-42.389333-141.077333c-3.52-12.842667-14.336-21.610667-27.221333-23.701333l-3.008-0.384-3.072-0.106667h-75.52c-15.189333 0-28.373333 8.853333-33.450667 22.357333l-0.96 2.965334-47.637333 181.418666a721.834667 721.834667 0 0 0-7.082667 179.84l1.429333 14.997334 0.554667 4.672-44.544-51.242667a37.098667 37.098667 0 0 0-35.050667-10.176l-3.093333 0.896-2.986667 1.194667-34.261333 15.125333c-16.853333 6.826667-25.28 24.533333-19.178667 40.789333l1.237334 2.858667L259.413333 682.688c7.808 17.28 20.629333 32 37.952 43.626667l5.333334 3.413333 107.285333 52.629333a16 16 0 0 0 4.608 1.450667l2.432 0.192h189.312z m-199.274666-38.698667L318.08 701.674667c-10.453333-6.357333-18.965333-14.464-25.002667-23.936l-2.453333-4.138667-2.133333-4.309333-92.586667-197.013334 50.645333-33.962666 39.786667 45.717333c10.261333 11.797333 29.141333 3.370667 28.053333-11.434667l-0.256-2.069333a691.605333 691.605333 0 0 1-5.546666-227.84l2.133333-13.973333 47.296-179.797334c0.170667-0.597333 0.853333-1.216 2.090667-1.493333l1.408-0.128h75.52c1.28 0 1.984 0.256 2.325333 0.64l0.213333 0.405333 56.405334 187.648v361.173334c-44.757333 30.805333-72.746667 76.266667-88.896 148.138666z m210.090666-0.341333c-10.816-75.093333-38.912-120.981333-89.173333-148.650667v-355.328l0.064-0.234666 57.962667-192.789334c0.042667-0.149333 0.426667-0.448 1.344-0.597333l1.109333-0.064h73.258667c0.64 0 1.301333 0.213333 1.898666 0.448l0.789334 0.426667 0.789333 0.576 46.997333 178.517333a690.88 690.88 0 0 1-3.072 243.264c-2.922667 15.210667 15.061333 24.874667 26.112 15.189333l1.514667-1.493333 43.136-48.362667 52.970667 27.114667-97.024 206.528a72.341333 72.341333 0 0 1-24.192 28.842667l-3.968 2.624L617.173333 744.96zM570.666667 341.333333a16 16 0 1 0 0-32 16 16 0 0 0 0 32z m275.84 92.650667l-44.586667-22.805333 17.450667-19.52c0.384-0.554667 1.706667-0.938667 3.2-0.64l1.173333 0.405333 35.264 15.957333-12.522667 26.602667z m-664.405334 8.981333l-16.746666-35.712h0.277333l0.469333-0.149333 0.789334-0.298667 34.88-15.381333c1.173333-0.533333 3.114667-0.213333 4.522666 0.789333l0.96 0.896 18.133334 20.885334-43.285334 28.970666zM570.666667 448a16 16 0 1 0 0-32 16 16 0 0 0 0 32z m0 106.666667a16 16 0 1 0 0-32 16 16 0 0 0 0 32z m15.189333 197.333333h-147.477333c14.037333-62.464 36.864-100.522667 72.853333-126.421333l0.768 0.021333c0.853333 0 1.642667-0.064 2.453333-0.192l-0.682666-0.405333c40.661333 22.912 63.04 60.586667 72.085333 126.997333z"  horiz-adv-x="1024" />

    
    <glyph glyph-name="Category_icon_Office" unicode="&#59357;" d="M800.981333 805.333333l-42.218666-223.168h131.904v-403.968h-158.101334v-130.197333H291.413333v130.197333H133.333333V582.144l151.530667 0.021333L327.082667 805.333333h473.898666zM700.586667 382.762667H323.413333V80h377.152V382.762667z m-421.76 167.424l-113.472-0.021334v-339.968h126.08v204.586667h441.173333l-0.021333-204.586667h126.101333V550.165333l-105.962667 0.021334v-0.042667H278.826667v0.042667z m502.869333-39.829334a37.205333 37.205333 0 1 0 0-74.389333 37.205333 37.205333 0 0 0 0 74.389333zM762.368 773.333333H353.578667l-36.16-191.146666h408.789333l36.16 191.146666z m-241.066667-116.757333a16 16 0 0 0 2.176-31.872l-2.176-0.128H436.693333a16 16 0 0 0-2.154666 31.850667l2.154666 0.149333h84.586667z m111.573334 70.656a16 16 0 0 0 2.176-31.872l-2.176-0.128h-196.16a16 16 0 0 0-2.154667 31.850667l2.154667 0.149333h196.16z"  horiz-adv-x="1024" />

    
    <glyph glyph-name="Category_icon_Groceries" unicode="&#59358;" d="M882.773333 547.754667v-16.789334c0-83.584-40.064-132.842667-117.077333-142.528a16 16 0 0 0-3.989333 31.744c53.333333 6.72 81.898667 34.901333 87.893333 88.149334l0.512 5.354666-0.426667-0.064c-98.005333-10.453333-140.906667-67.306667-131.946666-176.277333l0.576-6.442667 1.322666-0.106666a168.725333 168.725333 0 0 0 152.981334-162.730667l0.085333-5.248a168.704 168.704 0 1 0-237.546667 154.026667 16 16 0 0 0 13.056-29.184 136.704 136.704 0 1 1 60.672 11.776L704 299.477333h-14.037333l-1.834667 13.930667c-18.837333 144.106667 39.68 224.341333 171.242667 233.130667l6.656 0.384 16.768 0.810666zM402.261333 762.666667v-139.797334l-9.728 0.021334 76.864-179.712c3.114667-7.296 4.736-15.146667 4.736-23.082667v-420.010667H154.666667V420.096c0 7.936 1.6 15.786667 4.736 23.082667l76.842666 179.712h-9.728V762.666667h175.722667z m39.829334-586.666667H186.645333l0.021334-143.914667h255.424l-0.021334 143.914667z m306.837333 67.648a17.962667 17.962667 0 1 0 0-35.925333 17.962667 17.962667 0 0 0 0 35.925333z m-98.794667 17.962667a26.944 26.944 0 1 0 0-53.888 26.944 26.944 0 0 0 0 53.888z m-208.021333 139.690666H186.645333v-193.301333h255.424l0.021334 193.301333z m-84.373333 221.568h-86.677334L189.952 433.28h248.832l-81.066667 189.568z m12.522666 107.797334h-111.722666v-75.776h111.722666V730.666667z"  horiz-adv-x="1024" />

    
    <glyph glyph-name="Category_icon_WomensShoes" unicode="&#59359;" d="M698.048 712.170667c-40.256-31.765333-90.922667-81.28-155.2-149.952l-23.68-25.493334-27.84-30.357333-114.261333-126.144-9.258667-10.026667c-18.24-19.669333-30.464-28.608-42.538667-32.490666-4.8-1.536-9.386667-2.410667-17.258666-3.2l-9.984-0.874667c-45.653333-3.690667-75.84-10.965333-124.650667-36.053333-69.653333-35.776-93.44-109.269333-79.253333-171.221334 2.304-10.112 8.896-18.730667 18.069333-23.658666 33.813333-18.197333 185.962667-33.365333 290.410667-33.365334l11.733333 0.085334c18.56 0.298667 31.893333 1.344 39.594667 3.328l3.541333 1.024c24.405333 7.808 39.509333 30.421333 87.594667 121.386666l24.298666 45.781334 3.029334 5.632c8.874667 16.362667 16.853333 30.570667 24.405333 43.392l7.466667 12.458666c14.848 24.149333 27.84 42.154667 38.869333 53.482667l1.984 1.984v-271.893333c0-8.96 7.36-16.192 16.32-16l113.28 2.24a16 16 0 0 1 15.68 16.448l-0.64 25.877333c-1.877333 88.96 0.085333 160.96 5.909333 215.936 1.664 15.829333 4.693333 28.693333 9.941334 43.84l2.709333 7.509333 5.162667 13.546667c15.829333 41.045333 23.168 65.066667 30.250666 107.093333 20.586667 122.389333-37.610667 201.813333-116.245333 216.874667a36.522667 36.522667 0 0 1-29.44-7.189333z m23.424-24.256c61.888-11.84 108.330667-75.242667 90.688-180.117334-6.122667-36.501333-12.373333-58.176-25.173333-92.117333l-8.746667-22.826667c-1.045333-2.88-1.92-5.333333-2.858667-8.042666-6.016-17.344-9.6-32.554667-11.541333-50.965334l-0.832-8.170666c-5.333333-55.296-7.061333-125.824-5.248-211.669334l0.234667-10.090666-80.874667-1.6V389.397333l-0.170667 2.56c-1.92 14.656-20.330667 17.322667-28.245333 8l-0.405333-0.533333-7.466667-4.522667c-2.581333-1.6-4.693333-3.008-6.912-4.629333l-2.261333-1.706667a88.853333 88.853333 0 0 1-4.245334-3.477333c-16.149333-14.144-33.792-38.208-54.314666-72.362667-7.658667-12.757333-15.616-26.752-24.384-42.730666l-15.36-28.522667-22.805334-43.093333c-37.866667-71.018667-51.413333-90.432-63.616-94.357334l-0.981333-0.298666c-5.269333-1.344-19.029333-2.24-38.4-2.368l-4.949333-0.021334c-98.474667 0-248.064 14.933333-275.242667 29.546667a4.032 4.032 0 0 0-2.048 2.624c-11.221333 48.96 7.68 107.370667 62.698667 135.616 41.962667 21.568 67.669333 28.437333 105.386666 32l18.709334 1.642667a104.682667 104.682667 0 0 1 22.954666 4.48c18.112 5.824 34.56 17.856 56.213334 41.216l30.144 32.917333 106.496 117.589333 30.613333 33.152 7.68 8.234667c63.253333 67.584 113.002667 116.202667 151.68 146.709333a4.48 4.48 0 0 0 2.304 0.917334l1.28-0.064z"  horiz-adv-x="1024" />

    
    <glyph glyph-name="Category_icon_SportsFitness" unicode="&#59360;" d="M757.333333 698.666667a90.666667 90.666667 0 0 0 90.666667-90.666667v-101.546667a69.333333 69.333333 0 0 0 63.893333-65.194666l0.106667-3.925334v-64a69.333333 69.333333 0 0 0-64-69.12v-101.546666a90.666667 90.666667 0 1 0-181.333333 0v122.666666h-309.333334v-122.666666a90.666667 90.666667 0 0 0-86.272-90.56l-4.394666-0.106667a90.666667 90.666667 0 0 0-90.666667 90.666667v101.546666a69.333333 69.333333 0 0 0-63.893333 65.194667L112 373.333333v64a69.333333 69.333333 0 0 0 64 69.12V608a90.666667 90.666667 0 1 0 181.333333 0v-122.666667h309.333334V608a90.666667 90.666667 0 0 0 86.272 90.56z m-490.666666-32a58.666667 58.666667 0 0 1-58.666667-58.666667v-405.333333a58.666667 58.666667 0 1 1 117.333333 0v405.333333a58.666667 58.666667 0 0 1-58.666666 58.666667z m490.666666 0a58.666667 58.666667 0 0 1-58.666666-58.666667v-405.333333a58.666667 58.666667 0 1 1 117.333333 0v405.333333a58.666667 58.666667 0 0 1-58.666667 58.666667zM144.128 440.405333l-0.128-3.072v-64a37.333333 37.333333 0 0 1 32-36.949333v137.898667a37.333333 37.333333 0 0 1-31.872-33.877334z m703.893333 33.877334v-137.898667a37.333333 37.333333 0 0 1 31.850667 33.877333l0.128 3.072v64a37.333333 37.333333 0 0 1-31.978667 36.949334z m-181.354666-20.949334h-309.333334v-96h309.333334v96z"  horiz-adv-x="1024" />

    
    <glyph glyph-name="Category_icon_EthnicWear" unicode="&#59361;" d="M501.333333 762.666667a169.237333 169.237333 0 0 0 9.856-0.298667l0.874667-0.064a155.093333 155.093333 0 0 0 62.357333-17.344 178.218667 178.218667 0 0 0 54.037334-43.114667c61.653333-69.333333 104.106667-198.890667 117.248-393.514666 0.213333-2.944-0.405333-5.76-1.621334-8.213334l-0.576-0.981333a208.042667 208.042667 0 0 0 111.978667-178.538667l0.085333-6.016v-111.104a16 16 0 0 0-13.845333-15.850666l-2.154667-0.149334H177.386667a16 16 0 0 0-15.829334 13.824l-0.149333 2.176v109.866667a208.042667 208.042667 0 0 0 112.533333 184.832 15.488 15.488 0 0 0-2.88 8.746667C264.704 629.290667 357.269333 762.666667 501.333333 762.666667z m-68.394666-445.504l-115.413334-35.626667a176 176 0 0 1-124.032-162.410667l-0.085333-5.76-0.021333-93.888h86.357333v116.906667a16 16 0 0 0 31.850667 2.176l0.149333-2.176v-109.44l2.176 0.896c128.106667 55.104 232.746667 147.498667 314.176 277.546667l-36.821333 11.733333a81.621333 81.621333 0 0 0-158.336 0.042667z m223.381333-26.944c-75.413333-121.109333-170.56-211.434667-285.312-270.762667l92.544 0.021333 3.968 1.536c88.021333 35.946667 167.936 122.133333 239.210667 259.285334a1.621333 1.621333 0 0 1-0.32 0.149333l-5.589334 1.877333-42.325333 13.44a15.957333 15.957333 0 0 0-2.176-5.546666z m79.488-23.338667l-2.517333-4.842667c-59.818667-114.197333-126.421333-195.2-200.042667-242.56h176.085333v116.906667a16 16 0 0 0 31.850667 2.176l0.149333-2.176v-116.906667h82.218667v95.104a176.021333 176.021333 0 0 1-87.744 152.298667z m-174.08 113.002667a158.997333 158.997333 0 0 0-99.221333-7.082667v-35.797333a49.6 49.6 0 0 1 99.093333-3.413334l0.106667 3.413334zM325.461333 557.653333l-1.066666-4.266666c-15.530667-62.08-23.210667-142.165333-21.397334-242.901334l5.098667 1.621334 117.397333 36.224a16 16 0 0 0 5.013334 0.704v35.562666c-60.117333 29.632-102.4 95.808-105.045334 173.056z m350.442667-17.493333l-0.405333-3.392c-7.616-58.922667-38.464-109.589333-81.984-139.626667l0.042666-0.298666 0.149334-2.176v-45.632c1.002667 0 2.005333-0.064 3.008-0.234667l2.133333-0.512 111.658667-35.477333 2.88-0.938667-0.341334 4.757333c-6.613333 89.877333-19.413333 164.053333-37.12 223.530667z m-168.085333 92.373333l-1.514667-3.477333c-27.136-58.752-77.269333-86.506667-148.138667-81.6 7.786667-83.242667 69.333333-147.456 143.168-147.456 70.229333 0 129.344 58.112 141.653334 135.402667-43.882667 1.92-102.314667 36.906667-133.696 94.357333l-1.472 2.773333zM506.666667 576a16 16 0 1 0 0-32 16 16 0 0 0 0 32z m-5.333334 154.666667c-74.922667 0-137.173333-66.112-143.466666-151.082667 74.112-6.144 116.928 28.096 133.12 106.026667 3.541333 16.981333 27.754667 17.024 31.338666 0.064 9.642667-45.653333 35.050667-78.250667 70.528-98.666667 18.304-10.538667 39.04-16.874667 52.48-18.56-0.832 49.28-20.352 93.056-50.602666 122.666667a152.597333 152.597333 0 0 1-33.92 24.789333A128.362667 128.362667 0 0 1 501.333333 730.666667z"  horiz-adv-x="1024" />

    
    <glyph glyph-name="Feedliu_zhekoubiaoqian_triangle" unicode="&#59338;" d="M700.631579 896v-1024H532.884211L323.368421 384 532.884211 896z"  horiz-adv-x="1024" />

    
    <glyph glyph-name="singleproduct_coupon" unicode="&#59300;" d="M1102.769231 896a78.769231 78.769231 0 0 0 78.769231-78.769231v-275.692307a157.538462 157.538462 0 1 1 0-315.076924v-275.692307a78.769231 78.769231 0 0 0-78.769231-78.769231H78.769231a78.769231 78.769231 0 0 0-78.769231 78.769231v275.692307a157.538462 157.538462 0 1 1 0 315.076924V817.230769a78.769231 78.769231 0 0 0 78.769231 78.769231h1024zM413.538462 620.307692A59.076923 59.076923 0 0 1 354.461538 561.230769v-354.461538a59.076923 59.076923 0 0 1 118.153847 0v354.461538A59.076923 59.076923 0 0 1 413.538462 620.307692z"  horiz-adv-x="1181" />

    
    <glyph glyph-name="singleproduct_coupon_expired" unicode="&#59301;" d="M611.555556 896l-85.333334-1024h-28.444444l11.861333 142.222222H128a56.888889 56.888889 0 0 0-56.888889 56.888889v199.111111a113.777778 113.777778 0 1 1 0 227.555556V696.888889a56.888889 56.888889 0 0 0 56.888889 56.888889h443.249778L583.111111 896h28.444445z m-241.777778-341.333333A42.666667 42.666667 0 0 1 327.111111 512v-256a42.666667 42.666667 0 0 1 85.333333 0v256a42.666667 42.666667 0 0 1-42.666666 42.666667zM896 753.777778a56.888889 56.888889 0 0 0 56.888889-56.888889v-199.111111a113.777778 113.777778 0 1 1 0-227.555556v-199.111111a56.888889 56.888889 0 0 0-56.888889-56.888889H611.555556l56.888888 739.555556h227.555556z"  horiz-adv-x="1024" />

    
    <glyph glyph-name="feedyxtag_icon_cleanance" unicode="&#59331;" d="M512 896c282.763636 0 512-229.236364 512-512s-229.236364-512-512-512S0 101.236364 0 384 229.236364 896 512 896z m0-46.545455C254.929455 849.454545 46.545455 641.070545 46.545455 384s208.384-465.454545 465.454545-465.454545 465.454545 208.384 465.454545 465.454545S769.070545 849.454545 512 849.454545zM186.181818 572.695273c0 2.746182 2.56 5.492364 7.633455 2.746182l300.357818-104.261819c2.56-2.699636 5.12-2.699636 5.12-5.445818v-384a22.621091 22.621091 0 0 0-8.378182-19.362909 19.130182 19.130182 0 0 0-19.642182-2.56l-249.483636 74.007273c-20.619636 7.912727-34.769455 28.532364-35.607273 52.130909z m644.002909-8.238546c5.12 0 7.633455-2.746182 7.633455-5.492363v-386.699637a35.374545 35.374545 0 0 0-22.900364-32.907636l-254.557091-79.592727a19.223273 19.223273 0 0 0-17.826909 4.189091 22.667636 22.667636 0 0 0-7.633454 17.780363v384c0 2.746182 0 2.746182 2.56 5.492364l157.789091 46.592c2.56 2.792727 5.12 0 5.12-5.492364v-131.630545c0-5.492364 5.12-8.238545 7.633454-5.492364l66.187636 21.969455V542.533818c0 2.746182 2.56 2.746182 2.56 5.445818zM371.991273 663.179636L680.029091 559.010909c2.792727 0 5.12-2.466909 5.12-5.492364s-2.327273-5.492364-5.12-5.492363l-157.789091-52.130909h-2.56L204.008727 602.903273c-5.12 0-5.12 8.238545 0 10.984727l165.422546 49.338182h2.56zM506.926545 709.818182l307.991273-104.261818c5.12 0 5.12-8.192 0-10.938182l-71.261091-21.922909h-2.56L430.545455 674.164364c-2.56 2.746182-5.12 8.238545 0 10.984727L504.366545 709.818182h2.56z"  horiz-adv-x="1024" />

    
    <glyph glyph-name="feedyxtag_icon_crazydeal" unicode="&#59332;" d="M512 896c282.763636 0 512-229.236364 512-512s-229.236364-512-512-512S0 101.236364 0 384 229.236364 896 512 896z m0-46.545455C254.929455 849.454545 46.545455 641.070545 46.545455 384s208.384-465.454545 465.454545-465.454545 465.454545 208.384 465.454545 465.454545S769.070545 849.454545 512 849.454545z m-1.070545-213.643636a288.302545 288.302545 0 0 0 287.976727-288.023273 288.302545 288.302545 0 0 0-287.976727-287.976727 288.302545 288.302545 0 0 0-287.976728 287.976727 288.302545 288.302545 0 0 0 287.976728 287.976728z m83.176727-200.797091a24.669091 24.669091 0 0 1-16.942546-8.378182l-83.968-95.976727-52.596363 42.123636a24.669091 24.669091 0 1 1-30.859637-38.539636l71.074909-56.878545c10.286545-8.285091 25.320727-6.981818 33.978182 3.025454l99.514182 113.757091a24.669091 24.669091 0 0 1-20.200727 40.866909z m88.855273 271.872a345.227636 345.227636 0 0 0 149.038545-140.846545 24.669091 24.669091 0 1 0-43.008-24.296728 296.075636 296.075636 0 0 1-127.767273 120.832 24.669091 24.669091 0 0 0 21.736728 44.311273z m-311.063273-11.310545a24.669091 24.669091 0 0 0-11.310546-33.047273A296.029091 296.029091 0 0 1 232.820364 541.789091a24.669091 24.669091 0 0 0-42.961455 24.250182A345.134545 345.134545 0 0 0 338.850909 706.885818a24.669091 24.669091 0 0 0 33.047273-11.310545z"  horiz-adv-x="1024" />

    
    <glyph glyph-name="feedyxtag_icon_newuseronly" unicode="&#59333;" d="M512 896c282.763636 0 512-229.236364 512-512s-229.236364-512-512-512S0 101.236364 0 384 229.236364 896 512 896z m0-46.545455C254.929455 849.454545 46.545455 641.070545 46.545455 384s208.384-465.454545 465.454545-465.454545 465.454545 208.384 465.454545 465.454545S769.070545 849.454545 512 849.454545z m0-458.798545a279.272727 279.272727 0 0 0 279.272727-279.272727 20.386909 20.386909 0 0 0-20.386909-20.386909H253.114182A20.386909 20.386909 0 0 0 232.727273 111.383273a279.272727 279.272727 0 0 0 279.272727 279.272727z m0 299.194182a139.636364 139.636364 0 1 0 0-279.272727 139.636364 139.636364 0 0 0 0 279.272727z"  horiz-adv-x="1024" />

    
    <glyph glyph-name="feedyxtag_icon_luckydeal" unicode="&#59334;" d="M512 896c282.763636 0 512-229.236364 512-512s-229.236364-512-512-512S0 101.236364 0 384 229.236364 896 512 896z m0-46.545455C254.929455 849.454545 46.545455 641.070545 46.545455 384s208.384-465.454545 465.454545-465.454545 465.454545 208.384 465.454545 465.454545S769.070545 849.454545 512 849.454545z m0-139.636363a160.023273 160.023273 0 0 0 75.264-301.242182 249.669818 249.669818 0 0 0 171.938909-232.727273l0.093091-5.399272v-26.437819c0-7.447273-5.632-13.591273-12.893091-14.429091l-1.675636-0.09309H279.272727a14.568727 14.568727 0 0 0-14.429091 12.846545l-0.139636 1.675636v26.437819a249.762909 249.762909 0 0 0 172.032 238.17309A159.976727 159.976727 0 0 0 512 709.818182z m134.795636-27.415273c15.453091-0.465455 30.72-3.258182 45.707637-8.378182 57.018182-20.154182 95.883636-73.216 95.883636-133.492363a141.498182 141.498182 0 0 0-75.357091-124.416 218.298182 218.298182 0 0 0 148.061091-206.661819c0-7.447273-5.585455-13.637818-12.846545-14.42909l-1.722182-0.139637h-59.205818a279.552 279.552 0 0 1-137.402182 217.413818l-5.12 2.932364 0.930909 0.837818a188.834909 188.834909 0 0 1 55.389091 133.725091 188.509091 188.509091 0 0 1-54.318546 132.654546z m-267.636363 2.048a188.648727 188.648727 0 0 1-56.273455-134.656l0.093091-4.794182a188.788364 188.788364 0 0 1 51.758546-125.300363l4.421818-4.468364-0.465455-0.232727a279.412364 279.412364 0 0 1-141.963636-220.113455H177.384727l-1.675636 0.093091a14.568727 14.568727 0 0 0-12.846546 14.429091 218.298182 218.298182 0 0 0 148.014546 206.661818 141.498182 141.498182 0 0 0-75.264 124.462546c0 60.276364 38.818909 113.338182 95.883636 133.538909 14.987636 5.585455 30.952727 9.029818 47.662546 10.379636z"  horiz-adv-x="1024" />

    
    <glyph glyph-name="feedyxtag_icon_payonline" unicode="&#59335;" d="M512 896C228.072727 896 0 667.927273 0 384s228.072727-512 512-512 512 228.072727 512 512S795.927273 896 512 896z m256-123.345455V756.363636c0-48.872727-4.654545-95.418182-13.963636-141.963636-32.581818-6.981818-55.854545-34.909091-55.854546-67.490909 0-18.618182 6.981818-37.236364 20.945455-48.872727-16.290909-37.236364-32.581818-74.472727-55.854546-109.381819-86.109091 97.745455-146.618182 221.090909-167.563636 358.4 53.527273 32.581818 111.709091 58.181818 172.218182 74.472728 34.909091-11.636364 69.818182-27.927273 100.072727-48.872728z m37.236364-560.872727c-48.872727-9.309091-100.072727-13.963636-153.6-13.963636-23.272727 0-46.545455 2.327273-69.818182 2.327273 0 4.654545 0 9.309091-2.327273 13.963636 32.581818 30.254545 62.836364 65.163636 90.763636 100.072727 41.890909-39.563636 86.109091-74.472727 134.981819-102.4zM512 849.454545c25.6 0 51.2-2.327273 76.8-6.981818-32.581818-13.963636-65.163636-27.927273-97.745455-44.218182-2.327273 16.290909-2.327273 32.581818-2.327272 48.872728 6.981818 2.327273 16.290909 2.327273 23.272727 2.327272z m41.890909-595.781818c-11.636364 9.309091-25.6 13.963636-41.890909 13.963637-30.254545 0-55.854545-18.618182-65.163636-46.545455-93.090909 23.272727-181.527273 58.181818-260.654546 107.054546 20.945455 79.127273 55.854545 153.6 100.072727 218.763636 4.654545 0 9.309091-2.327273 16.29091-2.327273 39.563636 0 69.818182 30.254545 69.818181 69.818182 0 9.309091-2.327273 18.618182-4.654545 27.927273 27.927273 27.927273 55.854545 51.2 86.109091 74.472727 25.6-139.636364 90.763636-265.309091 183.854545-367.709091-25.6-34.909091-53.527273-65.163636-83.781818-95.418182zM46.545455 374.690909c27.927273-23.272727 55.854545-46.545455 86.10909-65.163636-9.309091-51.2-16.290909-104.727273-16.290909-158.254546v-11.636363c-41.890909 69.818182-67.490909 148.945455-69.818181 235.054545z m4.654545 58.181818c23.272727 209.454545 186.181818 377.018182 393.309091 409.6 0-25.6 2.327273-48.872727 4.654545-74.472727a1056.442182 1056.442182 0 0 1-111.709091-90.763636c-11.636364 6.981818-23.272727 9.309091-34.90909 9.309091C262.981818 686.545455 232.727273 656.290909 232.727273 616.727273c0-16.290909 6.981818-30.254545 16.290909-44.218182-46.545455-65.163636-81.454545-137.309091-102.4-216.436364-34.909091 23.272727-65.163636 48.872727-95.418182 76.8zM162.909091 151.272727c0 44.218182 4.654545 88.436364 13.963636 130.327273 83.781818-48.872727 174.545455-86.109091 269.963637-107.054545 0-2.327273 0-2.327273 2.327272-4.654546-81.454545-53.527273-174.545455-88.436364-274.618181-104.727273-4.654545 2.327273-4.654545 4.654545-6.981819 6.981819-2.327273 25.6-4.654545 51.2-4.654545 79.127272z m349.090909-232.727272c-114.036364 0-216.436364 41.890909-297.890909 109.381818 97.745455 18.618182 186.181818 55.854545 265.309091 109.381818 9.309091-6.981818 20.945455-9.309091 32.581818-9.309091 23.272727 0 41.890909 11.636364 55.854545 27.927273 27.927273-2.327273 55.854545-4.654545 83.781819-4.654546 74.472727 0 146.618182 9.309091 216.436363 25.6 16.290909-6.981818 32.581818-16.290909 48.872728-20.945454A462.056727 462.056727 0 0 0 512-81.454545z m183.854545 435.2c25.6 39.563636 46.545455 81.454545 65.163637 123.345454h6.981818c39.563636 0 69.818182 30.254545 69.818182 69.818182 0 27.927273-16.290909 51.2-39.563637 62.836364 9.309091 41.890909 13.963636 83.781818 13.963637 128 100.072727-86.109091 162.909091-211.781818 162.909091-353.745455 0-46.545455-6.981818-88.436364-18.618182-130.327273-25.6-11.636364-53.527273-20.945455-83.781818-27.927272-65.163636 32.581818-125.672727 76.8-176.872728 128z"  horiz-adv-x="1024" />

    
    <glyph glyph-name="feedyxtag_icon_flashsale" unicode="&#59336;" d="M775.421886 817.344582c6.1435 0 11.914667-1.722042 16.941168-4.979959a511.772179 511.772179 0 0 0 204.317921-592.661597A511.120595 511.120595 0 0 0 474.297296-126.52044a31.555251 31.555251 0 0 0-28.809292 33.51 31.229459 31.229459 0 0 0 33.510001 28.855834c11.7285-0.930833 23.457001-1.39625 35.1855-1.39625 191.705129 0 362.094175 122.637295 423.90151 304.987549a449.825219 449.825219 0 0 1-179.650837 520.568554 31.182917 31.182917 0 1 0 17.03425 57.339335zM673.216384 861.884958c1.023917 0 1.908208-0.325792 2.327083-0.884292 0.465417-0.5585 0.465417-1.582417 0.325792-2.327084l-75.164793-444.472927h147.816337c1.768583 0 2.047833-0.884292 2.187458-1.163541 0.465417-1.023917 0.465417-2.885583-1.163542-4.933417L356.08146-90.916065c-1.442792-1.722042-3.351-2.885583-5.119583-2.885583-1.023917 0-1.861667 0.325792-2.327084 0.884292-0.465417 0.5585-0.465417 1.582417-0.325791 2.327083l75.025168 444.472927H275.517833c-1.768583 0-2.047833 0.744667-2.187458 1.023917-0.465417 1.023917-0.465417 2.7925 1.163542 4.933417L667.910634 858.999374a6.795083 6.795083 0 0 0 5.259208 2.885584zM511.80988 896c12.659334 0 25.504834-0.465417 38.164168-1.39625a30.717501 30.717501 0 0 0 21.269542-10.844209c5.491917-6.236583 8.144792-14.427917 7.53975-22.712333a32.206834 32.206834 0 0 0-31.787959-28.809293h-1.722042a448.615135 448.615135 0 0 1-458.621594-303.777465 450.057927 450.057927 0 0 1 179.464671-520.568554 31.043292 31.043292 0 0 0 9.215251-42.911418 31.787959 31.787959 0 0 0-43.469918-9.075625A511.958345 511.958345 0 0 0 27.171494 548.706075 511.492929 511.492929 0 0 0 511.80988 896z"  horiz-adv-x="1024" />

    
    <glyph glyph-name="feedyxtag_icon_winphone" unicode="&#59337;" d="M791.272727 896a46.545455 46.545455 0 0 0 46.545455-46.545455v-930.90909a46.545455 46.545455 0 0 0-46.545455-46.545455H232.727273a46.545455 46.545455 0 0 0-46.545455 46.545455V849.454545a46.545455 46.545455 0 0 0 46.545455 46.545455h558.545454z m-279.272727-837.818182a46.545455 46.545455 0 1 1 0-93.090909 46.545455 46.545455 0 0 1 0 93.090909z m232.727273 698.181818H279.272727v-654.242909h465.454546V756.363636z"  horiz-adv-x="1024" />

    
    <glyph glyph-name="Feedliu-slopingTag" unicode="&#59330;" d="M512 896h640l-80.64-607.168A480 480 0 0 0 595.584-128h-87.52C227.456-128 0 99.45600000000002 0 380.03200000000004V384C0 666.784 229.216 896 512 896z"  horiz-adv-x="1152" />

    
    <glyph glyph-name="sale" unicode="&#59299;" d="M295.803871 17.275871l-99.922581-15.128774c-12.023742-3.303226-24.906323-0.165161-34.08929 8.258064a36.368516 36.368516 0 0 0-11.131871 33.362581c2.642581 28.37471 6.342194 56.485161 10.041806 84.826839 2.378323 19.588129 2.378323 20.678194-16.648258 26.491871l-86.181161 25.17058a35.047226 35.047226 0 0 0-21.933419 55.130839c17.176774 26.524903 34.617806 54.602323 52.851613 81.391484 5.053935 7.663484 4.261161 11.891613-2.642581 18.00258-24.840258 21.470968-49.416258 43.73471-73.728 65.998452a33.957161 33.957161 0 0 0 5.020903 55.923613c28.011355 18.035613 56.286968 35.54271 84.859871 53.016774a12.188903 12.188903 0 0 1 5.54942 17.771355c-11.891613 26.491871-23.023484 55.395097-34.650839 82.944a36.401548 36.401548 0 0 0 30.686968 55.659355c30.125419 4.261161 60.779355 7.432258 91.169032 10.339097 10.603355 0 17.738323 2.378323 18.002581 15.921548 0 27.813161 3.963871 55.395097 6.077935 82.944-0.396387 9.909677 1.717677 19.75329 6.077935 28.638968a35.377548 35.377548 0 0 0 42.050065 14.567226c31.710968-9.810581 63.421935-20.413935 94.637419-31.545807 10.041806-3.435355 15.06271-1.585548 19.819355 7.432258 15.326968 26.491871 31.44671 53.016774 46.80671 80.829936a37.293419 37.293419 0 0 0 60.515097 9.017806c24.344774-23.320774 48.656516-46.641548 72.439742-70.490839 5.813677-5.582452 9.777548-3.204129 14.798451 0 26.425806 17.738323 52.884645 35.509677 79.310452 52.983742a37.722839 37.722839 0 0 0 62.926451-21.735225c9.777548-29.927226 20.347871-59.09471 30.389678-86.907871a9.810581 9.810581 0 0 1 12.453161-7.696517l100.186839 14.567226a36.335484 36.335484 0 0 0 44.164129-40.563613 3063.312516 3063.312516 0 0 0-10.074839-86.115096c-2.642581-19.885419-2.114065-20.942452 17.738323-26.524904 28.011355-7.927742 56.02271-16.185806 83.802838-24.642064a35.344516 35.344516 0 0 0 21.404904-58.301936c-16.648258-26.524903-33.032258-53.016774-49.977807-77.658838-5.285161-7.696516-5.549419-12.221935 2.114065-18.828387 24.609032-21.20671 48.887742-42.941935 72.704-65.205678a34.221419 34.221419 0 0 0-6.077936-58.301935c-26.425806-16.978581-54.470194-34.188387-82.21729-50.869678-8.720516-5.053935-9.51329-10.372129-5.813677-19.356903 12.155871-26.524903 23.25471-55.395097 34.617806-83.24129a35.608774 35.608774 0 0 0-31.182452-53.016775c-30.653935-4.228129-61.605161-7.663484-92.523354-10.867612-10.570323 0-16.119742-4.228129-16.648259-16.185807-1.585548-26.491871-3.963871-55.097806-5.813677-82.679742a70.920258 70.920258 0 0 0-5.285161-26.491871 35.377548 35.377548 0 0 0-43.107097-16.450064 1940.18271 1940.18271 0 0 0-93.580387 31.545806 14.534194 14.534194 0 0 1-21.404903-8.456258c-14.831484-26.524903-30.686968-53.016774-46.245162-79.541677a36.764903 36.764903 0 0 0-61.109677-8.456258l-71.911226 69.698064c-5.813677 5.813677-9.777548 3.171097-14.798451 0l-79.27742-53.016774a37.987097 37.987097 0 0 0-64.247742 22.528c-9.546323 26.524903-20.116645 54.866581-29.629935 82.712774-1.849806 7.399226-5.813677 10.570323-11.363097 10.570323z m507.045161 235.354839a144.483097 144.483097 0 0 1-19.290838 78.187355 102.4 102.4 0 0 1-166.812904 21.735225 146.597161 146.597161 0 0 1-6.870709-185.542193 100.913548 100.913548 0 0 1 158.620903-5.020903 127.933935 127.933935 0 0 1 34.353548 89.583483v1.057033z m-327.283613 241.730064a157.762065 157.762065 0 0 1-21.933419 93.283097 102.168774 102.168774 0 0 1-163.377548 19.356903 146.332903 146.332903 0 0 1-5.020904-189.274839 100.64929 100.64929 0 0 1 146.729291-11.627354 128.660645 128.660645 0 0 1 43.60258 88.262193z m-121.889032-337.424516a12.221935 12.221935 0 0 1 6.606452-11.131871c6.375226-3.963871 12.981677-7.663484 19.323871-11.891613 12.420129-8.258065 18.233806-7.201032 26.425806 5.285161 15.855484 24.642065 31.215484 49.548387 47.070968 74.190452l181.875613 283.879226c21.140645 32.867097 42.050065 65.998452 62.926451 98.865548 8.192 12.981677 6.606452 18.828387-6.606451 26.491871l-17.441032 10.339097a13.972645 13.972645 0 0 1-22.23071-5.285161l-7.927742-12.453162c-47.236129-73.694968-94.472258-147.555097-141.708387-221.580387l-143.78942-225.57729a19.125677 19.125677 0 0 1-4.492387-11.131871z m393.414194 96.222968c0.594581-19.489032-6.309161-38.482581-19.323871-53.016774a44.659613 44.659613 0 0 0-67.947355-4.756646 88.955871 88.955871 0 0 0 0 120.567742 45.122065 45.122065 0 0 0 70.061419-7.927742c11.825548-15.789419 17.903484-35.146323 17.176774-54.86658zM309.281032 511.834839c-0.660645 19.389935 5.945806 38.317419 18.498065 53.016774a44.923871 44.923871 0 0 0 67.947355 5.84671 88.427355 88.427355 0 0 0 0-121.922065 45.386323 45.386323 0 0 0-69.268646 8.984774 83.637677 83.637677 0 0 0-17.176774 54.073807z"  horiz-adv-x="1057" />

    
    <glyph glyph-name="review_icon_warining" unicode="&#59298;" d="M510.045091 895.534545c281.460364 0 509.672727-228.212364 509.672727-509.672727s-228.212364-509.672727-509.672727-509.672727S0.465455 104.448 0.465455 385.861818 228.584727 895.534545 510.138182 895.534545z m3.584-673.838545c-18.432 0-33.512727-5.818182-45.195636-17.547636-13.405091-11.729455-19.316364-26.810182-19.316364-45.242182 0-18.385455 5.911273-33.512727 19.316364-45.195637 11.682909-11.729455 26.763636-18.432 45.195636-18.432a67.956364 67.956364 0 0 1 46.871273 17.594182 63.767273 63.767273 0 0 1 18.432 46.08c0 18.385455-6.702545 33.466182-18.432 45.149091-12.567273 11.776-28.439273 17.594182-46.871273 17.594182z m56.925091 471.412364H457.541818l20.945455-426.170182h71.121454l20.945455 426.170182z"  horiz-adv-x="1024" />

    
    <glyph glyph-name="tabicon_groupbuy_normal" unicode="&#59291;" d="M512 810.666667c129.6 0 234.666667-105.066667 234.666667-234.666667 0-89.706667-50.346667-167.658667-124.288-207.146667 144.256-46.506667 249.258667-181.802667 252.224-342.293333l0.064-6.954667v-38.762666a21.333333 21.333333 0 0 0-42.517334-2.496L832-19.157333v38.762666c0 170.666667-130.368 310.4-295.701333 322.986667a235.349333 235.349333 0 0 0-48.490667-0.021333c-163.2-12.330667-292.330667-148.586667-295.744-316.181334L192 19.605333v-38.762666a21.333333 21.333333 0 0 0-42.517333-2.496L149.333333-19.157333v38.762666c0 163.52 105.941333 302.08 252.288 349.269334A234.56 234.56 0 0 0 277.333333 576c0 129.6 105.066667 234.666667 234.666667 234.666667z m264.725333-52.437334C860.352 728.618667 917.333333 650.816 917.333333 562.389333c0-78.698667-44.650667-147.072-110.464-182.506666C933.12 337.045333 1024 217.536 1024 76.778667a21.333333 21.333333 0 0 0-42.666667 0c0 153.173333-124.16 277.333333-277.333333 277.333333a21.333333 21.333333 0 0 0 0 42.666667c94.378667 0 170.666667 74.261333 170.666667 165.589333 0 70.08-45.312 131.968-112.192 155.626667a21.333333 21.333333 0 0 0 14.250666 40.234666z m-529.450666 0a21.333333 21.333333 0 1 0 14.250666-40.234666C194.645333 694.314667 149.333333 632.448 149.333333 562.368c0-91.306667 76.288-165.589333 170.666667-165.589333a21.333333 21.333333 0 1 0 0-42.666667c-153.173333 0-277.333333-124.16-277.333333-277.333333a21.333333 21.333333 0 0 0-42.666667 0c0 140.736 90.88 260.266667 217.130667 303.104C151.317333 415.296 106.666667 483.690667 106.666667 562.368c0 88.448 56.96 166.250667 140.608 195.84zM512 768a192 192 0 0 1-23.296-382.592 364.330667 364.330667 0 0 0 46.592 0.021333A192 192 0 0 1 512 768z"  horiz-adv-x="1024" />

    
    <glyph glyph-name="tabicon_groupbuy_selected" unicode="&#59313;" d="M512 810.666667c129.6 0 234.666667-105.066667 234.666667-234.666667 0-89.706667-50.346667-167.658667-124.288-207.146667 144-46.421333 248.853333-181.290667 252.202666-341.354666l0.085334-7.893334v-38.762666a21.333333 21.333333 0 0 0-18.837334-21.205334l-2.496-0.128H170.666667a21.333333 21.333333 0 0 0-21.184 18.837334L149.333333-19.157333v38.762666c0 163.52 105.941333 302.08 252.288 349.269334A234.56 234.56 0 0 0 277.333333 576c0 129.6 105.066667 234.666667 234.666667 234.666667z m197.717333-40.170667c22.677333-0.746667 45.013333-4.821333 66.986667-12.266667C860.373333 728.618667 917.333333 650.816 917.333333 562.389333c0-78.698667-44.650667-147.072-110.464-182.506666C933.12 337.045333 1024 217.536 1024 76.778667a21.333333 21.333333 0 0 0-18.837333-21.184l-2.496-0.149334h-86.890667c-11.776 134.954667-88.533333 253.184-201.472 318.869334l-7.530667 4.266666 1.301334 1.237334A276.949333 276.949333 0 0 1 789.333333 576c0 75.754667-30.378667 144.426667-79.616 194.496z m-392.490666 2.986667A276.693333 276.693333 0 0 1 234.666667 576l0.085333-7.04a276.864 276.864 0 0 1 75.946667-183.765333l6.485333-6.592-0.64-0.362667C199.68 313.28 120.106667 192.853333 108.202667 55.466667L21.333333 55.424l-2.496 0.149333A21.333333 21.333333 0 0 0 0 76.778667c0 140.736 90.88 260.266667 217.130667 303.104C151.317333 415.296 106.666667 483.690667 106.666667 562.346667c0 88.448 56.96 166.250667 140.608 195.84a262.229333 262.229333 0 0 0 69.952 15.274666z"  horiz-adv-x="1024" />

    
    <glyph glyph-name="tabicon_Win_normal" unicode="&#59292;" d="M512 832c247.424 0 448-200.576 448-448s-200.576-448-448-448S64 136.576 64 384 264.576 832 512 832z m0-42.666667C288.149333 789.333333 106.666667 607.850667 106.666667 384s181.482667-405.333333 405.333333-405.333333 405.333333 181.482667 405.333333 405.333333S735.850667 789.333333 512 789.333333z m149.333333-106.666666a42.666667 42.666667 0 0 0 42.56-39.466667L704 640v-519.530667a42.666667 42.666667 0 0 0-39.466667-42.538666l-3.2-0.128H362.666667a42.666667 42.666667 0 0 0-42.56 39.466666l-0.106667 3.2V640a42.666667 42.666667 0 0 0 39.466667 42.56L362.666667 682.666667h298.666666z m0-454.272H362.666667v-107.925334h298.666666v107.925334z m-149.333333-18.816A30.122667 30.122667 0 1 0 512 149.333333a30.122667 30.122667 0 0 0 0 60.245334zM661.333333 640H362.666667v-368.938667h298.666666V640z m-101.781333-45.930667a21.333333 21.333333 0 0 0 2.474667-42.517333l-2.474667-0.149333h-100.394667a21.333333 21.333333 0 0 0-2.496 42.538666l2.496 0.128h100.394667z"  horiz-adv-x="1024" />

    
    <glyph glyph-name="tabicon_Win_selected" unicode="&#59309;" d="M512 832c247.424 0 448-200.576 448-448s-200.576-448-448-448S64 136.576 64 384 264.576 832 512 832z m149.333333-149.333333H362.666667l-3.2-0.106667A42.666667 42.666667 0 0 1 320 640v-519.530667l0.106667-3.2A42.666667 42.666667 0 0 1 362.666667 77.824h298.666666l3.2 0.128A42.666667 42.666667 0 0 1 704 120.469333V640l-0.106667 3.2A42.666667 42.666667 0 0 1 661.333333 682.666667z m0-454.272v-107.925334H362.666667v107.925334h298.666666z m-149.333333-18.816A30.122667 30.122667 0 1 1 512 149.333333a30.122667 30.122667 0 0 1 0 60.245334zM661.333333 640v-368.938667H362.666667V640h298.666666z m-101.781333-45.930667h-100.394667l-2.496-0.128a21.333333 21.333333 0 0 1 2.496-42.538666h100.394667l2.474667 0.149333a21.333333 21.333333 0 0 1-2.474667 42.517333z"  horiz-adv-x="1024" />

    
    <glyph glyph-name="tabicon_howtoplay_normal" unicode="&#59310;" d="M608 0a21.333333 21.333333 0 0 0 2.496-42.517333L608-42.666667h-192a21.333333 21.333333 0 0 0-2.496 42.517334L416 0h192z m10.666667 74.666667a21.333333 21.333333 0 0 0 2.496-42.517334L618.666667 32H405.333333a21.333333 21.333333 0 0 0-2.496 42.517333L405.333333 74.666667h213.333334zM512 853.333333c188.522667 0 341.333333-152.810667 341.333333-341.333333 0-91.733333-36.394667-177.770667-99.968-241.365333a342.165333 342.165333 0 0 0-92.074666-65.664v-34.581334a64 64 0 0 0-60.245334-63.893333l-3.754666-0.106667h-170.56a64 64 0 0 0-63.893334 60.245334l-0.106666 3.776v34.538666a340.736 340.736 0 0 0-92.096 65.706667A340.266667 340.266667 0 0 0 170.666667 512C170.666667 700.522667 323.477333 853.333333 512 853.333333z m0-42.666666c-164.949333 0-298.666667-133.717333-298.666667-298.666667a297.6 297.6 0 0 1 87.466667-211.2 298.474667 298.474667 0 0 1 71.722667-52.992l8.874666-4.48 24-11.690667v-61.226666a21.333333 21.333333 0 0 1 18.837334-21.205334l2.496-0.149333h170.56a21.333333 21.333333 0 0 1 21.184 18.837333l0.149333 2.496v61.248l23.978667 11.690667A299.498667 299.498667 0 0 1 723.2 300.8 297.6 297.6 0 0 1 810.666667 512c0 164.949333-133.717333 298.666667-298.666667 298.666667z"  horiz-adv-x="1024" />

    
    <glyph glyph-name="tabicon_howtoplay_selected" unicode="&#59311;" d="M608 0a21.333333 21.333333 0 0 0 2.496-42.517333L608-42.666667h-192a21.333333 21.333333 0 0 0-2.496 42.517334L416 0h192z m10.666667 74.666667a21.333333 21.333333 0 0 0 2.496-42.517334L618.666667 32H405.333333a21.333333 21.333333 0 0 0-2.496 42.517333L405.333333 74.666667h213.333334zM512 853.333333c188.522667 0 341.333333-152.810667 341.333333-341.333333 0-91.733333-36.394667-177.770667-99.968-241.365333a342.165333 342.165333 0 0 0-92.074666-65.664V170.368a64 64 0 0 0-60.245334-63.872l-3.754666-0.106667h-170.56a64 64 0 0 0-63.893334 60.245334l-0.106666 3.776v34.538666a340.736 340.736 0 0 0-92.096 65.706667A340.266667 340.266667 0 0 0 170.666667 512C170.666667 700.522667 323.477333 853.333333 512 853.333333z m67.669333-93.44a21.333333 21.333333 0 0 1 12.736-27.349333 235.093333 235.093333 0 0 0 150.08-176.149333 21.333333 21.333333 0 0 1 41.898667 8 277.76 277.76 0 0 1-177.365333 208.213333 21.333333 21.333333 0 0 1-27.349334-12.714667z"  horiz-adv-x="1024" />

    
    <glyph glyph-name="tabicon_luckydeal_selected" unicode="&#59312;" d="M512 832c247.424 0 448-200.576 448-448s-200.576-448-448-448S64 136.576 64 384 264.576 832 512 832z m5.888-272.448H264.810667l-2.496-0.149333a21.333333 21.333333 0 0 1 2.496-42.517334h86.314666l4.266667-0.106666c35.605333-1.749333 65.109333-25.088 74.858667-56.490667h-165.44l-2.496-0.149333a21.333333 21.333333 0 0 1 2.496-42.538667h166.186666c-9.216-33.962667-41.386667-59.2-79.872-59.2h-77.141333l-2.432-0.128c-17.365333-1.856-25.514667-23.445333-12.650667-36.288l181.013334-181.034667 2.026666-1.770666a21.333333 21.333333 0 0 1 28.16 1.770666l1.770667 2.005334a21.333333 21.333333 0 0 1-1.770667 28.16l-144.64 144.64 25.664-0.021334 4.8 0.085334c59.882667 2.197333 109.162667 45.376 118.741334 101.781333h43.221333l2.474667 0.149333a21.333333 21.333333 0 0 1-2.474667 42.517334h-43.690667a120.064 120.064 0 0 1-27.925333 56.618666h71.616l2.474667 0.128a21.333333 21.333333 0 0 1-2.474667 42.538667z m211.648-18.922667a21.333333 21.333333 0 0 1-33.578667 14.933334l-102.485333-73.109334-2.069333-1.706666a21.333333 21.333333 0 0 1-2.901334-28.053334l1.706667-2.069333a21.333333 21.333333 0 0 1 28.053333-2.901333l68.736 49.066666V164.693333l0.149334-2.474666a21.333333 21.333333 0 0 1 42.538666 2.474666V538.24z"  horiz-adv-x="1024" />

    
    <glyph glyph-name="tabicon_luckydeal_normal" unicode="&#59314;" d="M512 832c247.424 0 448-200.576 448-448s-200.576-448-448-448S64 136.576 64 384 264.576 832 512 832z m0-42.666667C288.149333 789.333333 106.666667 607.850667 106.666667 384s181.482667-405.333333 405.333333-405.333333 405.333333 181.482667 405.333333 405.333333S735.850667 789.333333 512 789.333333z m5.888-229.781333a21.333333 21.333333 0 0 0 2.474667-42.538667l-2.474667-0.128h-71.616a120.064 120.064 0 0 0 27.925333-56.597333h43.690667a21.333333 21.333333 0 0 0 2.474667-42.538667l-2.474667-0.149333H474.666667c-9.578667-56.405333-58.88-99.584-118.741334-101.76l-4.8-0.106667-25.664 0.021334 144.64-144.64a21.333333 21.333333 0 0 0 1.770667-28.16l-1.770667-2.005334a21.333333 21.333333 0 0 0-28.16-1.770666l-2.026666 1.770666-181.013334 181.034667c-12.864 12.842667-4.693333 34.432 12.650667 36.288l2.432 0.128h77.141333c38.485333 0 70.656 25.237333 79.893334 59.2h-166.208a21.333333 21.333333 0 0 0-2.496 42.538667l2.496 0.128 165.44 0.021333c-9.749333 31.402667-39.253333 54.741333-74.858667 56.490667l-4.266667 0.106666h-86.314666a21.333333 21.333333 0 0 0-2.496 42.517334l2.496 0.149333h253.077333z m211.648-18.922667l0.149333-2.410666V164.693333a21.333333 21.333333 0 0 0-42.538666-2.474666l-0.128 2.474666-0.021334 332.096-68.736-49.066666a21.333333 21.333333 0 0 0-28.074666 2.901333l-1.685334 2.069333a21.333333 21.333333 0 0 0 2.901334 28.074667l2.069333 1.706667 102.485333 73.109333a21.333333 21.333333 0 0 0 33.578667-14.933333z"  horiz-adv-x="1024" />

    
    </font>
</defs>
</svg>
